<svg xmlns="http://www.w3.org/2000/svg" viewBox="0 0 184.99 184.99"><defs><style>.cls-1{fill:#303030;}.cls-2{fill:#d39997;}.cls-3{fill:#ffefca;}.cls-4{fill:#60858a;}.cls-5{fill:#fee69f;}.cls-6{opacity:0.1;}.cls-7{fill:#4f6e72;}.cls-8{fill:#fff;opacity:0.4;}.cls-9{fill:#a0cebf;}.cls-10{fill:#a33a11;}.cls-11{fill:#1b172c;}</style></defs><title>Asset 4</title><g id="Layer_2" data-name="Layer 2"><g id="Layer_1-2" data-name="Layer 1"><polygon class="cls-1" points="86.23 46 92.23 66 96.23 38 92.23 32 86.23 46"/><path class="cls-2" d="M25.66,155.73c.2-4.59.93-8.55,2.59-10.68,5.41-7,28.92-10.05,39.35-11.07l2.15-.24v0c1.8-.16,2.88-.23,2.88-.23h0l1.42-16.23h0l.19-2.1a53.93,53.93,0,0,1-11-15.72c-2.44,0-5.33-2.91-7.07-7.36-2.12-5.44-1.72-11.15.9-12.77l0-.18c-.14-1-.26-1.93-.36-2.89,0-.08,0-.15,0-.23,0-.26,0-.53-.08-.79-.06-.65-.1-1.3-.14-2,0-.23,0-.46,0-.69-.05-1-.08-2-.08-3s0-1.9.07-2.82c0-.22,0-.44,0-.66q.06-.94.15-1.86c0-.15,0-.3,0-.45l0-.36a44.71,44.71,0,0,1,1.26-6.68c0-.08.05-.16.07-.24a37.46,37.46,0,0,1,1.84-5.17l0,0c.4-.92.85-1.79,1.32-2.64-.18,0-.37,0-.54.09a11.71,11.71,0,0,0-2.57.88c-.36.17-.65.39-.94.56a3.44,3.44,0,0,0-.69.53l-.57.52.34-.7a3.37,3.37,0,0,1,.46-.8,10.43,10.43,0,0,1,.74-1,13.33,13.33,0,0,1,2.33-2,21.34,21.34,0,0,1,3.09-1.74c.14-.06.28-.11.41-.18a5.79,5.79,0,0,0-1-.05,8.14,8.14,0,0,0-1.44.1,4.91,4.91,0,0,0-1.2.29,3,3,0,0,0-.88.39l-.74.46.55-.69a3.52,3.52,0,0,1,.76-.71A4.84,4.84,0,0,1,60.45,44,7.73,7.73,0,0,1,62,43.3a12.66,12.66,0,0,1,1.77-.5c.37-.08.77-.13,1.16-.19l-.65-.21a8.53,8.53,0,0,0-1.06-.23L62.35,42l-.74-.13.73-.17.84-.18a7.73,7.73,0,0,1,1.12-.21l1.36-.14a7.3,7.3,0,0,1,1.32,0,32.22,32.22,0,0,1,11.13-6.83l.36-.12,1.26-.43.23-.06c.48-.15,1-.28,1.43-.41l.34-.08L83.08,33l.49-.09c.41-.09.82-.17,1.24-.24l.5-.07c.41-.07.83-.13,1.25-.18h.09l.39,0,1.31-.14h0l.53,0h.24c.34,0,.67,0,1-.06h0l1.43,0H92v-.1h1a41.11,41.11,0,0,1,9.63,1.21v0a1.13,1.13,0,0,1,1.39-.78h0c.41-1.32.9-2.66,1.48-4A33.87,33.87,0,0,1,113.3,17a25.08,25.08,0,0,1,7-4.74,23.84,23.84,0,0,1,9.14-2.15,24.71,24.71,0,0,1,5,.3A92,92,0,0,0,25.66,155.73Z"/><path class="cls-2" d="M155.89,40.41A44,44,0,0,1,154.31,47a99.73,99.73,0,0,1-4.14,10.54c-1.4,3.1-2.71,5.87-3.74,8.36a33.25,33.25,0,0,0-2.16,6.63,11.38,11.38,0,0,0,.1,5.16,9.77,9.77,0,0,0,.77,2,6.51,6.51,0,0,0,.86,1.49l.87,1.27C138.61,81.39,131,70.2,130.3,62.37c-.41-4.77,1.14-9.2.26-14-1.07-5.85-5.49-14.72-13-12.11a6.1,6.1,0,0,0-2.26,1.57l0,0a1.13,1.13,0,0,1,.23,1.58l0,0c.54.43,1.07.87,1.57,1.33a31.34,31.34,0,0,1,7.11,9.7,38.51,38.51,0,0,1,2.79,8.59,47.17,47.17,0,0,1,.37,20.75c2.13,2,2.34,7.3.37,12.34a14.8,14.8,0,0,1-4.1,6.09,4,4,0,0,1,.09.85,4.6,4.6,0,0,1-4.6,4.6,4.07,4.07,0,0,1-.61-.06,50.69,50.69,0,0,1-8.83,11.6l1.41,16a2.83,2.83,0,0,0,2.49,2.47c1.25.1,2.26.2,1.2.1,2.25.21,5.42.53,9,1,2.82.38,5.91.84,9,1.41l2.4.47c1.27.25,2.54.53,3.79.83h.07l1.49.37.13,0,1.39.37.2,0,1.3.37.25.08,1.2.37.29.09,1.13.38.3.11c.36.13.71.25,1.05.39l.32.12,1,.4.33.14.89.4.33.17c.27.13.54.26.8.4l.34.19.71.41.34.22c.2.13.42.26.61.4s.22.17.34.26l.51.39.36.33.38.34c.22.24.43.47.61.71,1.48,1.91,2.23,5.27,2.51,9.24A90.66,90.66,0,0,0,183,92a91.71,91.71,0,0,0-1.51-16.58l1-.18A91.82,91.82,0,0,0,154,24a24.07,24.07,0,0,1,2.27,8.38A29.93,29.93,0,0,1,155.89,40.41Z"/><path class="cls-3" d="M57.1,79.45s0,0,0-.08c-2.62,1.62-3,7.33-.9,12.77,1.74,4.45,4.63,7.34,7.07,7.36A72.52,72.52,0,0,1,57.1,79.45Z"/><path class="cls-4" d="M90.88,183,92,141.44v-.08l-4,12.31-.22.69-.72-.33-19.38-8.79-.79-.36-.17-1-1.58-9.6L67.6,134c-10.43,1-33.94,4.07-39.35,11.07-1.66,2.13-2.39,6.09-2.59,10.68,1.55,1.61,3.15,3.17,4.82,4.66l.66-.74A90.81,90.81,0,0,0,90.88,183Z"/><path class="cls-4" d="M69.75,133.8l-2.29.2,1.07,9.65,18.87,9.78L92,141.35v-.14h-.36l-19-7.37a2.89,2.89,0,0,1,0-.29h0s-1.08.07-2.88.23Z"/><path class="cls-5" d="M83.08,33l.49-.09Z"/><path class="cls-5" d="M79.73,33.82l.23-.06Z"/><path class="cls-5" d="M81.39,33.35l.34-.08Z"/><path class="cls-5" d="M59.85,51.41l0,0Z"/><path class="cls-5" d="M78.11,34.37l.36-.12Z"/><path class="cls-5" d="M84.81,32.62l.5-.07Z"/><path class="cls-5" d="M57.94,56.82c0-.08.05-.16.07-.24C58,56.66,58,56.74,57.94,56.82Z"/><path class="cls-5" d="M89.15,32.14h0Z"/><path class="cls-5" d="M56.46,73.33c0,.65.08,1.3.14,2-.06-.65-.1-1.3-.14-2Z"/><path class="cls-5" d="M56.6,64.31q-.09.91-.15,1.86h0Q56.51,65.23,56.6,64.31Z"/><path class="cls-5" d="M56.34,69.65c0,1,0,2,.08,3h0C56.37,71.64,56.34,70.64,56.34,69.65Z"/><path class="cls-5" d="M56.41,66.83c0,.92-.07,1.86-.07,2.82,0-1,0-1.9.07-2.82Z"/><path class="cls-5" d="M88.38,32.18h0Z"/><path class="cls-5" d="M86.62,32.36h0Z"/><path class="cls-5" d="M90.17,32.08h0Z"/><path class="cls-5" d="M87,32.32l-.39,0h0Z"/><path class="cls-5" d="M57.1,79.45c0-.08,0-.17,0-.26l0,.18S57.1,79.43,57.1,79.45Z"/><path class="cls-3" d="M91.64,141.21H92V123.62h0c-5.56,0-11-2.07-16.14-6.14l.38-.48c-.67-.56-1.34-1.16-2-1.79l-.19,2.1-1.42,16.23h0a2.89,2.89,0,0,0,0,.29Z"/><polygon class="cls-2" points="74.24 115.22 74.24 115.22 74.05 117.32 74.06 117.32 74.24 115.22"/><polygon class="cls-6" points="74.24 115.22 74.24 115.22 74.05 117.32 74.06 117.32 74.24 115.22"/><path class="cls-7" d="M92,141.44,90.88,183c.37,0,.74,0,1.12,0V141.44Z"/><path class="cls-7" d="M65.17,134.25l1.58,9.6.17,1,.79.36L87.09,154l.72.33.22-.69,4-12.31h0l-4.6,12.08-18.87-9.78L67.46,134l2.29-.2v-.06L67.6,134Z"/><path class="cls-2" d="M78.47,34.25l1.26-.43Z"/><path class="cls-8" d="M78.47,34.25l1.26-.43Z"/><path class="cls-2" d="M92,32h0Z"/><path class="cls-8" d="M92,32h0Z"/><path class="cls-2" d="M58,56.58a37.46,37.46,0,0,1,1.84-5.17A37.46,37.46,0,0,0,58,56.58Z"/><path class="cls-8" d="M58,56.58a37.46,37.46,0,0,1,1.84-5.17A37.46,37.46,0,0,0,58,56.58Z"/><path class="cls-2" d="M80,33.76c.48-.15,1-.28,1.43-.41C80.91,33.48,80.44,33.61,80,33.76Z"/><path class="cls-8" d="M80,33.76c.48-.15,1-.28,1.43-.41C80.91,33.48,80.44,33.61,80,33.76Z"/><path class="cls-2" d="M85.31,32.55c.41-.07.83-.13,1.25-.18C86.14,32.42,85.72,32.48,85.31,32.55Z"/><path class="cls-8" d="M85.31,32.55c.41-.07.83-.13,1.25-.18C86.14,32.42,85.72,32.48,85.31,32.55Z"/><path class="cls-2" d="M89.15,32.14c.34,0,.67,0,1-.06C89.82,32.09,89.49,32.12,89.15,32.14Z"/><path class="cls-8" d="M89.15,32.14c.34,0,.67,0,1-.06C89.82,32.09,89.49,32.12,89.15,32.14Z"/><path class="cls-2" d="M63.26,99.5h0a53.93,53.93,0,0,0,11,15.72h0A53.93,53.93,0,0,1,63.26,99.5Z"/><path class="cls-8" d="M63.26,99.5h0a53.93,53.93,0,0,0,11,15.72h0A53.93,53.93,0,0,1,63.26,99.5Z"/><path class="cls-2" d="M57.94,56.82a44.71,44.71,0,0,0-1.26,6.68h0A44.71,44.71,0,0,1,57.94,56.82Z"/><path class="cls-8" d="M57.94,56.82a44.71,44.71,0,0,0-1.26,6.68h0A44.71,44.71,0,0,1,57.94,56.82Z"/><path class="cls-2" d="M83.57,32.86c.41-.09.82-.17,1.24-.24C84.39,32.69,84,32.77,83.57,32.86Z"/><path class="cls-8" d="M83.57,32.86c.41-.09.82-.17,1.24-.24C84.39,32.69,84,32.77,83.57,32.86Z"/><path class="cls-2" d="M61.19,48.74c-.47.85-.92,1.72-1.32,2.64.4-.92.85-1.79,1.32-2.64Z"/><path class="cls-8" d="M61.19,48.74c-.47.85-.92,1.72-1.32,2.64.4-.92.85-1.79,1.32-2.64Z"/><path class="cls-2" d="M56.65,63.86c0,.15,0,.3,0,.45,0-.15,0-.3,0-.45Z"/><path class="cls-8" d="M56.65,63.86c0,.15,0,.3,0,.45,0-.15,0-.3,0-.45Z"/><path class="cls-2" d="M88.35,32.18,87,32.32Z"/><path class="cls-8" d="M88.35,32.18,87,32.32Z"/><path class="cls-2" d="M56.7,76.3h0c.1,1,.22,1.93.36,2.89C56.92,78.23,56.8,77.27,56.7,76.3Z"/><path class="cls-8" d="M56.7,76.3h0c.1,1,.22,1.93.36,2.89C56.92,78.23,56.8,77.27,56.7,76.3Z"/><path class="cls-2" d="M56.6,75.28c0,.26,0,.53.08.79h0C56.65,75.8,56.63,75.54,56.6,75.28Z"/><path class="cls-8" d="M56.6,75.28c0,.26,0,.53.08.79h0C56.65,75.8,56.63,75.54,56.6,75.28Z"/><path class="cls-2" d="M78.11,34.37A32.22,32.22,0,0,0,67,41.2h0A32.22,32.22,0,0,1,78.11,34.37Z"/><path class="cls-8" d="M78.11,34.37A32.22,32.22,0,0,0,67,41.2h0A32.22,32.22,0,0,1,78.11,34.37Z"/><path class="cls-2" d="M81.73,33.27,83.08,33Z"/><path class="cls-8" d="M81.73,33.27,83.08,33Z"/><path class="cls-3" d="M57.1,79.45a72.52,72.52,0,0,0,6.16,20h0A72.52,72.52,0,0,1,57.1,79.45Z"/><path class="cls-8" d="M57.1,79.45a72.52,72.52,0,0,0,6.16,20h0A72.52,72.52,0,0,1,57.1,79.45Z"/><path class="cls-5" d="M56.68,63.5a39.76,39.76,0,0,1,4.55-14.77h0c-.47.85-.92,1.72-1.32,2.64l0,0A37.46,37.46,0,0,0,58,56.58c0,.08,0,.16-.07.24A44.71,44.71,0,0,0,56.68,63.5Z"/><path class="cls-8" d="M56.68,63.5a39.76,39.76,0,0,1,4.55-14.77h0c-.47.85-.92,1.72-1.32,2.64l0,0A37.46,37.46,0,0,0,58,56.58c0,.08,0,.16-.07.24A44.71,44.71,0,0,0,56.68,63.5Z"/><path class="cls-5" d="M56.34,69.65c0,1,0,2,.08,3C56.37,71.64,56.34,70.64,56.34,69.65Z"/><path class="cls-8" d="M56.34,69.65c0,1,0,2,.08,3C56.37,71.64,56.34,70.64,56.34,69.65Z"/><path class="cls-5" d="M90.17,32.08h0c-.34,0-.67,0-1,.06H89C89.36,32.12,89.76,32.09,90.17,32.08Z"/><path class="cls-8" d="M90.17,32.08h0c-.34,0-.67,0-1,.06H89C89.36,32.12,89.76,32.09,90.17,32.08Z"/><path class="cls-5" d="M57.1,79.45a72.52,72.52,0,0,0,6.16,20,53.93,53.93,0,0,0,11,15.72h0c.65.62,1.32,1.22,2,1.78l.39-.49c4.92,3.89,10.09,5.86,15.36,5.86V65.93c-10.54-1.41-12-6.8-12-6.8a4.37,4.37,0,0,0-1.24,3.77c-2.68-1.82-4.69-9.25-4.69-9.25-2.16,2.11,0,7,0,7-2.18-2-3.42-5.27-4.12-8.13-1,6.23-2.65,14.45-5,16.56-3.91,3.5-4.86,13.81-4.86,13.81H57.71c-.44-2.17-.78-4.36-1-6.54.1,1,.22,1.93.36,2.89C57.07,79.28,57.09,79.37,57.1,79.45Z"/><path class="cls-8" d="M57.1,79.45a72.52,72.52,0,0,0,6.16,20,53.93,53.93,0,0,0,11,15.72h0c.65.62,1.32,1.22,2,1.78l.39-.49c4.92,3.89,10.09,5.86,15.36,5.86V65.93c-10.54-1.41-12-6.8-12-6.8a4.37,4.37,0,0,0-1.24,3.77c-2.68-1.82-4.69-9.25-4.69-9.25-2.16,2.11,0,7,0,7-2.18-2-3.42-5.27-4.12-8.13-1,6.23-2.65,14.45-5,16.56-3.91,3.5-4.86,13.81-4.86,13.81H57.71c-.44-2.17-.78-4.36-1-6.54.1,1,.22,1.93.36,2.89C57.07,79.28,57.09,79.37,57.1,79.45Z"/><path class="cls-5" d="M56.41,66.83c0,.92-.07,1.86-.07,2.82C56.34,68.69,56.37,67.75,56.41,66.83Z"/><path class="cls-8" d="M56.41,66.83c0,.92-.07,1.86-.07,2.82C56.34,68.69,56.37,67.75,56.41,66.83Z"/><path class="cls-5" d="M56.46,73.33c0,.65.08,1.3.14,2,0,.26,0,.52.08.79C56.58,75.15,56.51,74.24,56.46,73.33Z"/><path class="cls-8" d="M56.46,73.33c0,.65.08,1.3.14,2,0,.26,0,.52.08.79C56.58,75.15,56.51,74.24,56.46,73.33Z"/><path class="cls-5" d="M88.38,32.18h0L87,32.32l-.35,0Z"/><path class="cls-8" d="M88.38,32.18h0L87,32.32l-.35,0Z"/><path class="cls-5" d="M67,41.21a34,34,0,0,1,19.62-8.85h-.06c-.42.05-.84.11-1.25.18l-.5.07c-.42.07-.83.15-1.24.24l-.49.09-1.35.32-.34.08c-.48.13-1,.26-1.43.41l-.23.06-1.26.43-.36.12A32.22,32.22,0,0,0,67,41.2Z"/><path class="cls-8" d="M67,41.21a34,34,0,0,1,19.62-8.85h-.06c-.42.05-.84.11-1.25.18l-.5.07c-.42.07-.83.15-1.24.24l-.49.09-1.35.32-.34.08c-.48.13-1,.26-1.43.41l-.23.06-1.26.43-.36.12A32.22,32.22,0,0,0,67,41.2Z"/><path class="cls-5" d="M56.65,63.86c0,.15,0,.3,0,.45q-.09.91-.15,1.86C56.5,65.38,56.56,64.61,56.65,63.86Z"/><path class="cls-8" d="M56.65,63.86c0,.15,0,.3,0,.45q-.09.91-.15,1.86C56.5,65.38,56.56,64.61,56.65,63.86Z"/><polygon class="cls-2" points="74.24 115.22 74.24 115.22 74.24 115.22 74.24 115.22 74.24 115.22"/><polygon class="cls-6" points="74.24 115.22 74.24 115.22 74.24 115.22 74.24 115.22 74.24 115.22"/><polygon class="cls-8" points="74.24 115.22 74.24 115.22 74.24 115.22 74.24 115.22 74.24 115.22"/><polygon class="cls-5" points="74.24 115.22 74.24 115.22 74.24 115.22 74.24 115.22 74.24 115.22"/><polygon class="cls-6" points="74.24 115.22 74.24 115.22 74.24 115.22 74.24 115.22 74.24 115.22"/><polygon class="cls-8" points="74.24 115.22 74.24 115.22 74.24 115.22 74.24 115.22 74.24 115.22"/><path class="cls-3" d="M76.24,117c-.68-.56-1.35-1.16-2-1.78h0c.65.63,1.32,1.23,2,1.79Z"/><path class="cls-8" d="M76.24,117c-.68-.56-1.35-1.16-2-1.78h0c.65.63,1.32,1.23,2,1.79Z"/><path class="cls-1" d="M57.71,82.84h2.35S61,72.53,64.92,69c2.36-2.11,4-10.33,5-16.56.7,2.86,1.94,6.11,4.12,8.13,0,0-2.16-4.84,0-7,0,0,2,7.43,4.69,9.25A4.37,4.37,0,0,1,80,59.13s1.47,5.39,12,6.8h0V32h-.4l-1.43,0h0c-.41,0-.81,0-1.21.07h0l-.53,0h0l-1.69.17h-.07A34,34,0,0,0,67,41.21h0a7.3,7.3,0,0,0-1.32,0l-1.36.14a7.73,7.73,0,0,0-1.12.21l-.84.18-.73.17.74.13.83.15a8.53,8.53,0,0,1,1.06.23l.65.21c-.39.06-.79.11-1.16.19a12.66,12.66,0,0,0-1.77.5,7.73,7.73,0,0,0-1.51.66,4.84,4.84,0,0,0-1.16.75,3.52,3.52,0,0,0-.76.71l-.55.69.74-.46a3,3,0,0,1,.88-.39A4.91,4.91,0,0,1,60.8,45a8.14,8.14,0,0,1,1.44-.1,5.79,5.79,0,0,1,1,.05c-.13.07-.27.12-.41.18a21.34,21.34,0,0,0-3.09,1.74,13.33,13.33,0,0,0-2.33,2,10.43,10.43,0,0,0-.74,1,3.37,3.37,0,0,0-.46.8l-.34.7.57-.52a3.44,3.44,0,0,1,.69-.53c.29-.17.58-.39.94-.56a11.71,11.71,0,0,1,2.57-.88c.17,0,.36-.06.54-.09h0A39.76,39.76,0,0,0,56.68,63.5h0l0,.36h0c-.09.75-.15,1.52-.2,2.31h0c0,.22,0,.44,0,.66h0c0,.92-.07,1.86-.07,2.82s0,2,.08,3h0c0,.23,0,.46,0,.69h0c0,.91.12,1.82.22,2.74h0c0,.08,0,.15,0,.23h0C56.93,78.48,57.27,80.67,57.71,82.84Z"/><path class="cls-5" d="M140.79,138l1.39.37Z"/><path class="cls-5" d="M139.17,137.57l1.49.37Z"/><path class="cls-5" d="M145.42,139.3l1.13.38Z"/><path class="cls-5" d="M143.93,138.84l1.2.37Z"/><path class="cls-5" d="M142.38,138.39l1.3.37Z"/><path class="cls-5" d="M150.74,141.41c.27.13.54.26.8.4C151.28,141.67,151,141.54,150.74,141.41Z"/><path class="cls-5" d="M146.85,139.79l1.05.39C147.56,140,147.21,139.92,146.85,139.79Z"/><path class="cls-5" d="M153.54,143c-.19-.14-.41-.27-.61-.4C153.13,142.76,153.35,142.89,153.54,143Z"/><path class="cls-5" d="M154.39,143.68l-.51-.39Z"/><path class="cls-5" d="M155.13,144.35l-.38-.34Z"/><path class="cls-5" d="M148.22,140.3l1,.4Z"/><path class="cls-5" d="M152.59,142.41l-.71-.41Z"/><path class="cls-5" d="M149.52,140.84l.89.4Z"/><path class="cls-5" d="M125.16,83.05s.7-17.56-4-23.72a60.91,60.91,0,0,1-23,6.45c0-.2.06-.39.1-.58a11.76,11.76,0,0,0,0-2.14L98.18,62a4.58,4.58,0,0,0-.27-1,5.85,5.85,0,0,0-.66-1.59l-.85-1.39s.07.63.17,1.58a5.49,5.49,0,0,1-.08,1.54,3.38,3.38,0,0,1-.15.82l-.26.82a9.43,9.43,0,0,1-.71,1.46,10.41,10.41,0,0,1-.84,1.1,6.63,6.63,0,0,1-.66.63,2.64,2.64,0,0,1-1.25,0L92,66v0h0v56.44h0c5.28,0,10.45-2,15.38-5.87l.77,1c-5.15,4.07-10.58,6.13-16.14,6.13v17.73h0v19.18h0c22.31,0,40.73-10.29,43.92-23.69,1.07.22,2.13.46,3.18.71-1.25-.3-2.52-.58-3.79-.83l-2.4-.47c-3.11-.57-6.2-1-9-1.41-3.62-.48-6.79-.8-9-1,1.06.1.05,0-1.2-.1a2.83,2.83,0,0,1-2.49-2.47l-1.41-16a50.69,50.69,0,0,0,8.83-11.6,67.8,67.8,0,0,0,3.8-7.85,4.57,4.57,0,0,1,1.32,2.46,14.8,14.8,0,0,0,4.1-6.09c2-5,1.76-10.31-.37-12.34-.21,1-.45,2.13-.74,3.24Z"/><path class="cls-9" d="M122.38,95.78a67.8,67.8,0,0,1-3.8,7.85,4.07,4.07,0,0,0,.61.06,4.6,4.6,0,0,0,4.6-4.6,4,4,0,0,0-.09-.85A4.57,4.57,0,0,0,122.38,95.78Z"/><path class="cls-10" d="M129.46,10.09a23.84,23.84,0,0,0-9.14,2.15,25.08,25.08,0,0,0-7,4.74,33.87,33.87,0,0,0-7.78,11.34c-.58,1.37-1.07,2.71-1.48,4,.81.23,1.62.49,2.42.77a34.27,34.27,0,0,1,8.88,4.69,6.1,6.1,0,0,1,2.26-1.57c7.47-2.61,11.89,6.26,13,12.11.88,4.82-.67,9.25-.26,14,.68,7.83,8.31,19,16.57,20.08L146,81.18a6.51,6.51,0,0,1-.86-1.49,9.77,9.77,0,0,1-.77-2,11.38,11.38,0,0,1-.1-5.16,33.25,33.25,0,0,1,2.16-6.63c1-2.49,2.34-5.26,3.74-8.36A99.73,99.73,0,0,0,154.31,47a44,44,0,0,0,1.58-6.57,29.93,29.93,0,0,0,.37-8A24.07,24.07,0,0,0,154,24,92.2,92.2,0,0,0,134.5,10.39,24.71,24.71,0,0,0,129.46,10.09Z"/><path class="cls-9" d="M92,160.54h0V183h0a90.75,90.75,0,0,0,66.25-28.69c-.28-4-1-7.33-2.51-9.24-.18-.24-.39-.47-.61-.71l-.38-.34-.36-.33-.51-.39c-.12-.09-.22-.18-.34-.26s-.41-.27-.61-.4l-.34-.22-.71-.41-.34-.19c-.26-.14-.53-.27-.8-.4l-.33-.17-.89-.4-.33-.14-1-.4-.32-.12-1.05-.39-.3-.11-1.13-.38-.29-.09-1.2-.37-.25-.08-1.3-.37-.2,0-1.39-.37-.13,0-1.49-.37h-.07c-1-.25-2.11-.49-3.18-.71C132.73,150.25,114.31,160.54,92,160.54Z"/><path class="cls-9" d="M106.08,34.19a32.74,32.74,0,0,1,9.51,5.25l0,0a1.13,1.13,0,0,0-.23-1.58l0,0a34.27,34.27,0,0,0-8.88-4.69c-.8-.28-1.61-.54-2.42-.77h0a1.13,1.13,0,0,0-1.39.78v0C103.8,33.44,105,33.78,106.08,34.19Z"/><path class="cls-10" d="M92,65.93v0l.62.08a2.64,2.64,0,0,0,1.25,0,6.63,6.63,0,0,0,.66-.63,10.41,10.41,0,0,0,.84-1.1,9.43,9.43,0,0,0,.71-1.46l.26-.82a3.38,3.38,0,0,0,.15-.82,5.49,5.49,0,0,0,.08-1.54c-.1-1-.17-1.58-.17-1.58l.85,1.39A5.85,5.85,0,0,1,97.91,61a4.58,4.58,0,0,1,.27,1l.14,1.05a11.76,11.76,0,0,1,0,2.14c0,.19-.07.38-.1.58a60.91,60.91,0,0,0,23-6.45c4.65,6.16,4,23.72,4,23.72h1.53c.29-1.11.53-2.19.74-3.24a47.17,47.17,0,0,0-.37-20.75,38.51,38.51,0,0,0-2.79-8.59,31.34,31.34,0,0,0-7.11-9.7c-.5-.46-1-.9-1.57-1.33a32.74,32.74,0,0,0-9.51-5.25c-1.13-.41-2.28-.75-3.45-1A41.11,41.11,0,0,0,93,31.93H92v34Z"/><path class="cls-11" d="M183,92a91.11,91.11,0,0,1-91,91h0c-.38,0-.75,0-1.12,0a90.81,90.81,0,0,1-59.74-23.31l-.66.74-.68.75A93,93,0,0,0,185,92a93.8,93.8,0,0,0-1.54-16.94l-1,.18-1,.18A91.71,91.71,0,0,1,183,92Z"/><path class="cls-11" d="M107.37,116.51c-4.93,3.89-10.1,5.87-15.38,5.87h0c-5.27,0-10.44-2-15.36-5.86l-.39.49h0l-.38.48c5.15,4.07,10.58,6.14,16.14,6.14h0c5.56,0,11-2.06,16.14-6.13Z"/></g></g></svg>