<svg xmlns="http://www.w3.org/2000/svg" viewBox="0 0 184.99 184.99"><defs><style>.cls-1{fill:#f9be7b;}.cls-2{fill:#303030;}.cls-3,.cls-5{fill:#fff;}.cls-4{fill:#fdefc5;}.cls-5{opacity:0.4;}.cls-6{fill:#fee69f;}.cls-7{fill:#9a746d;}.cls-8{fill:#bc8282;}.cls-9{fill:#e7e7e7;}.cls-10{fill:#3f3004;}.cls-11{fill:#d39997;}.cls-12{fill:#1b172c;}</style></defs><title>Asset 2</title><g id="Layer_2" data-name="Layer 2"><g id="Layer_1-2" data-name="Layer 1"><path class="cls-1" d="M0,92a91.67,91.67,0,0,0,25.66,63.74c.2-4.59.94-8.55,2.59-10.68,4.62-6,22.39-9.06,34-10.48h0l.14,0c1.78-.21,3.41-.39,4.83-.53.9-.09,3.57-.3,4.88-.4l.75-.06,1.5-18.25A53.86,53.86,0,0,1,63.26,99.5c-2.43,0-5.32-2.91-7.06-7.36S54.41,83,55.92,80.59c-.25-1-.56-2.17-.91-3.63-.4-2-.67-4.33-1-7.07,0-1.47-.09-3-.15-4.69s.2-3.32.34-5.11a40.76,40.76,0,0,1,3.08-11.36,33.92,33.92,0,0,1,7.77-11,34.88,34.88,0,0,1,12.42-7.53,44,44,0,0,1,7.21-1.83c1.26-.16,2.6-.36,3.81-.46l3.36-.17H92a42.37,42.37,0,0,1,13,2.05,33.38,33.38,0,0,1,11.45,6.43A30.69,30.69,0,0,1,124,45.9a40.07,40.07,0,0,1,3.37,10.38,46.68,46.68,0,0,1,.73,9.14c0,.73,0,1.42-.07,2.09h.07s-.37,3.8-.42,9.28c1.84,2.06,2.05,6.76.42,11.41,1,10.76,3.84,22.53,11.47,26.76a101.49,101.49,0,0,1-28.66,9.78l.3,3.31a2.53,2.53,0,0,0,.48,1.27,2.69,2.69,0,0,1,3.43.54,2.77,2.77,0,0,1,.48.83c2.18.2,5.07.51,8.34.94,2.82.37,5.9.84,9,1.41l2.39.46c8.84,1.78,17.43,4.45,20.44,8.34,1.85,2.38,2.55,7,2.64,12.32A90.68,90.68,0,0,0,183,92a91.69,91.69,0,0,0-1.51-16.57l1-.18A92,92,0,0,0,0,92Z"/><polygon class="cls-2" points="92.76 28 90.76 28 87.76 72 94.76 65 104.76 33 92.76 28"/><path class="cls-3" d="M68.69,143.73l18.71,9.7L92,141.37v0l-19.9-7.72h0c-1.31.1-4,.31-4.88.4L68.57,144Z"/><path class="cls-3" d="M92,141.64v6.76a3.93,3.93,0,0,0,.59.06,3.57,3.57,0,0,0,3.58-3.56,3.72,3.72,0,0,0-.2-1.16,3.3,3.3,0,1,0-.49-.94,3.54,3.54,0,0,0-2.87-1.48,4.07,4.07,0,0,0-.61.06h0l-3.77,12.37-.27.87-.94-.4-18.08-7.59,4.73,34.49A91.5,91.5,0,0,0,90.88,183Z"/><path class="cls-4" d="M72.09,133.62,92,141.34V123.85h-.24c-5.56,0-11-2.06-16.14-6.13l.59-.75c-.63-.53-1.25-1.09-1.86-1.67l-1.5,18.25-.75.06Z"/><path class="cls-4" d="M57.74,83l-1.13.23s-.25-.9-.69-2.59c-1.51,2.41-1.47,7.07.28,11.55s4.63,7.33,7.06,7.36A71.88,71.88,0,0,1,57.74,83Z"/><path class="cls-1" d="M63.26,99.5h0a53.86,53.86,0,0,0,11.08,15.81h0A53.86,53.86,0,0,1,63.26,99.5Z"/><path class="cls-5" d="M63.26,99.5h0a53.86,53.86,0,0,0,11.08,15.81h0A53.86,53.86,0,0,1,63.26,99.5Z"/><path class="cls-4" d="M76.2,117c-.63-.53-1.25-1.09-1.86-1.67h0c.61.58,1.23,1.14,1.86,1.67Z"/><path class="cls-5" d="M76.2,117c-.63-.53-1.25-1.09-1.86-1.67h0c.61.58,1.23,1.14,1.86,1.67Z"/><path class="cls-4" d="M57.74,83h0A71.88,71.88,0,0,0,63.26,99.5h0A71.88,71.88,0,0,1,57.74,83Z"/><path class="cls-5" d="M57.74,83h0A71.88,71.88,0,0,0,63.26,99.5h0A71.88,71.88,0,0,1,57.74,83Z"/><path class="cls-6" d="M91.75,122.61H92V67.9a11.82,11.82,0,0,1-4.16-.69C73.1,61.5,62.27,52.56,59.18,65.61a35.68,35.68,0,0,0-.47,4c0,2.73-.19,5.17-.14,7.09.23,3.75.3,6,.3,6L57.74,83A71.88,71.88,0,0,0,63.26,99.5a53.86,53.86,0,0,0,11.08,15.81c.61.58,1.23,1.14,1.86,1.67l.19-.23C81.31,120.64,86.48,122.61,91.75,122.61ZM91.3,99.14a11.21,11.21,0,0,1-13.06,5.4,7.09,7.09,0,0,1-.84-.31,5,5,0,0,1,.38-.82A10.79,10.79,0,0,1,79,101.67a11.54,11.54,0,0,1,9.83-4.06,11,11,0,0,1,2.06.41,6.27,6.27,0,0,1,.84.3A6.37,6.37,0,0,1,91.3,99.14Z"/><path class="cls-5" d="M91.75,122.61H92V67.9a11.82,11.82,0,0,1-4.16-.69C73.1,61.5,62.27,52.56,59.18,65.61a35.68,35.68,0,0,0-.47,4c0,2.73-.19,5.17-.14,7.09.23,3.75.3,6,.3,6L57.74,83A71.88,71.88,0,0,0,63.26,99.5a53.86,53.86,0,0,0,11.08,15.81c.61.58,1.23,1.14,1.86,1.67l.19-.23C81.31,120.64,86.48,122.61,91.75,122.61ZM91.3,99.14a11.21,11.21,0,0,1-13.06,5.4,7.09,7.09,0,0,1-.84-.31,5,5,0,0,1,.38-.82A10.79,10.79,0,0,1,79,101.67a11.54,11.54,0,0,1,9.83-4.06,11,11,0,0,1,2.06.41,6.27,6.27,0,0,1,.84.3A6.37,6.37,0,0,1,91.3,99.14Z"/><path class="cls-7" d="M62.38,134.55c1.78-.21,3.42-.39,4.83-.53C65.79,134.16,64.16,134.34,62.38,134.55Z"/><path class="cls-7" d="M59.19,176.88,46.13,150.39h4.24l-3.79-5.34,15.66-10.48c-11.6,1.42-29.37,4.51-34,10.48-1.65,2.13-2.39,6.09-2.59,10.68,1.55,1.61,3.16,3.17,4.82,4.66l.66-.74A90.77,90.77,0,0,0,59.19,176.88Z"/><path class="cls-8" d="M46.58,145.05l3.79,5.34H46.13l13.06,26.49c1,.4,2.08.77,3.12,1.13L49.82,152.69h5l-5-7L67.21,134c-1.41.14-3,.32-4.83.53l-.14,0h0Z"/><path class="cls-2" d="M56.61,83.18,57.74,83h0l1.13-.23s-.07-2.24-.3-6c0-1.92.13-4.36.14-7.09a35.68,35.68,0,0,1,.47-4c3.09-13,13.92-4.11,28.65,1.6A11.82,11.82,0,0,0,92,67.9V27.71h-.17l-3.36.17c-1.21.1-2.55.3-3.81.46a44,44,0,0,0-7.21,1.83A34.88,34.88,0,0,0,65,37.69a33.92,33.92,0,0,0-7.77,11,40.76,40.76,0,0,0-3.08,11.36c-.14,1.79-.3,3.5-.34,5.11s.11,3.22.15,4.69c.36,2.74.63,5.08,1,7.07.35,1.46.66,2.67.91,3.63C56.36,82.28,56.61,83.18,56.61,83.18Z"/><polygon class="cls-9" points="87.01 154.21 87.95 154.61 88.22 153.74 91.99 141.37 91.99 141.37 87.4 153.43 68.69 143.73 68.57 143.97 68.93 146.62 87.01 154.21"/><path class="cls-7" d="M49.82,145.65l5,7h-5L62.31,178a92.4,92.4,0,0,0,11.35,3.1l-4.73-34.49L68.57,144,67.21,134Z"/><path class="cls-9" d="M92,166.18V141.64L90.88,183,92,183Z"/><path class="cls-2" d="M88.78,97.61A11.54,11.54,0,0,0,79,101.67a10.79,10.79,0,0,0-1.17,1.74,5,5,0,0,0-.38.82,7.09,7.09,0,0,0,.84.31,11.23,11.23,0,0,0,13.06-5.4,6.37,6.37,0,0,0,.38-.82,6.27,6.27,0,0,0-.84-.3A11,11,0,0,0,88.78,97.61Z"/><path class="cls-10" d="M123.31,95.31a10.66,10.66,0,0,1,.48,3.18c0,4-2.06,7.21-4.6,7.21a3.27,3.27,0,0,1-1.86-.62,50.2,50.2,0,0,1-7.33,9.76l.86,9.9A101.49,101.49,0,0,0,139.52,115c-7.63-4.23-10.5-16-11.47-26.76-.08.25-.16.49-.26.73A14.15,14.15,0,0,1,123.31,95.31Z"/><path class="cls-6" d="M127,76.22c0-.3.07-.59.11-.88l-.56,3.13c0-2.43-.26-10.8-5.31-14.63A101,101,0,0,1,92,68V122.6c5.2-.06,10.29-2,15.14-5.85l.77,1c-5.07,4-10.43,6.06-15.91,6.12v17.52h0a4.07,4.07,0,0,1,.61-.06,3.54,3.54,0,0,1,2.87,1.48,3.43,3.43,0,1,1,.49.94,3.72,3.72,0,0,1,.2,1.16,3.57,3.57,0,0,1-3.58,3.56,3.93,3.93,0,0,1-.59-.06v17.78c13.69,0,26-3,34.69-7.89l8.24-24.86.38.07-2.39-.46c-3.12-.57-6.2-1-9-1.41-3.27-.43-6.16-.74-8.34-.94a2.68,2.68,0,0,1-4,3.19,2.9,2.9,0,0,1-4.41,3.57,3.11,3.11,0,1,1-.88-1.24,2.89,2.89,0,0,1,4.31-3.43,2.69,2.69,0,0,1,.66-3.2,3,3,0,0,1,.36-.26,2.53,2.53,0,0,1-.48-1.27l-.3-3.31-.86-9.9a50.2,50.2,0,0,0,7.33-9.76,70.79,70.79,0,0,0,5.3-11.36,8.18,8.18,0,0,1,.68,1.59,14.15,14.15,0,0,0,4.48-6.38c.1-.24.18-.48.26-.73,1.63-4.65,1.42-9.35-.42-11.41A3.22,3.22,0,0,0,127,76.22Z"/><path class="cls-3" d="M119.19,105.7c2.54,0,4.6-3.23,4.6-7.21a10.66,10.66,0,0,0-.48-3.18,8.18,8.18,0,0,0-.68-1.59,70.79,70.79,0,0,1-5.3,11.36A3.27,3.27,0,0,0,119.19,105.7Z"/><path class="cls-8" d="M126.68,158.29h0L120,178.59a91.21,91.21,0,0,0,38.41-24.43c-.09-5.28-.79-9.94-2.64-12.32-3-3.89-11.6-6.56-20.44-8.34l-.38-.07Z"/><path class="cls-11" d="M126.68,158.29c-8.69,4.85-21,7.89-34.69,7.89V183h0a90.82,90.82,0,0,0,28-4.4l6.72-20.3Z"/><path class="cls-3" d="M110.62,132.78a2.89,2.89,0,0,0-4.31,3.43,3.15,3.15,0,1,0,.88,1.24,2.9,2.9,0,0,0,4.41-3.57,2.68,2.68,0,0,0,4-3.19,2.77,2.77,0,0,0-.48-.83,2.69,2.69,0,0,0-3.43-.54,3,3,0,0,0-.36.26A2.69,2.69,0,0,0,110.62,132.78Z"/><path class="cls-12" d="M183,92a91,91,0,0,1-91,91h0l-1.11,0a91.22,91.22,0,0,1-28.57-5c-1-.36-2.09-.73-3.12-1.13a90.77,90.77,0,0,1-28-17.23l-.66.74-.68.75A93,93,0,0,0,185,92a94,94,0,0,0-1.54-16.94l-1,.19-1,.18A91.69,91.69,0,0,1,183,92Z"/><path class="cls-12" d="M107.9,117.73l-.77-1c-4.85,3.83-9.94,5.79-15.14,5.85h-.24c-5.27,0-10.44-2-15.36-5.86l-.19.23h0l-.59.75c5.15,4.07,10.58,6.13,16.14,6.13H92C97.47,123.79,102.83,121.74,107.9,117.73Z"/><path class="cls-10" d="M92,67.9v0a101,101,0,0,0,29.22-4.11c5.05,3.83,5.34,12.2,5.31,14.63l.56-3.13c0,.29-.07.58-.11.88a3.22,3.22,0,0,1,.66.57c.05-5.48.42-9.28.42-9.28H128c0-.67.06-1.36.07-2.09a46.68,46.68,0,0,0-.73-9.14A40.07,40.07,0,0,0,124,45.9a30.69,30.69,0,0,0-7.51-9.71A33.38,33.38,0,0,0,105,29.76a42.37,42.37,0,0,0-13-2.05h0Z"/></g></g></svg>