<svg xmlns="http://www.w3.org/2000/svg" viewBox="0 0 248.22 249.78"><defs><style>.cls-1{fill:#bc8282;}.cls-2{fill:#a0cebf;}.cls-3{fill:#f8f8f8;}.cls-4{fill:#e7e7e7;}.cls-5{fill:#f9be7b;}.cls-6{fill:#f4a95c;}.cls-7{fill:#d39997;}.cls-8{fill:none;stroke:#1b172c;stroke-linejoin:round;stroke-width:2px;}</style></defs><title>Asset 7</title><g id="Layer_2" data-name="Layer 2"><g id="Layer_1-2" data-name="Layer 1"><path class="cls-1" d="M146.46,139.58l0-3.84c0-7.42-2.92-18.59-16.6-18.53l-6.26,0h-1.15c-4.88,0-6.55-1.57-6.56-5.55v-2.27c0-4.89,2.4-5.5,7.32-5.5h.62c4.56,0,14.46.37,20,.82L143.78,93a62.57,62.57,0,0,0-16-2.69l0-8h-4.56l-4.24,0,0,7.92c-10.12.36-18.24,4.66-18.22,17.85l0,5.72c0,5.07,1.34,18.6,17.84,18.53h7.14c4.54,0,5.59,1.95,5.59,5.27l0,2.67c0,4-3.12,4.91-7,4.92h-1.16c-8.21,0-16.64-.55-20.16-.8l0,11.69a48.2,48.2,0,0,0,16.19,2.74l0,7.66h8.78l0-7.55C137.21,158.86,146.53,155.26,146.46,139.58Z"/><path class="cls-2" d="M127.62.05C54.66-1.91,1.78,55.64.05,120.56c-1.94,72.92,56,128.25,123.3,128.22A123.33,123.33,0,0,0,247.18,128.2C249,54.77,192.18,1.78,127.62.05Zm-3.69,199.34a75,75,0,1,1,74.68-75.3A75,75,0,0,1,123.93,199.39Z"/><path class="cls-3" d="M123.9,193.69a69.3,69.3,0,1,1-.58-138.6h0l0-5.7a75,75,0,1,0,.63,150l0-5.7Z"/><path class="cls-4" d="M123.3,49.39l0,5.7a69.3,69.3,0,0,1,.58,138.6l0,5.7a75,75,0,0,0-.63-150Z"/><path class="cls-5" d="M123.85,182l-.07-15.57H119.3l0-7.66a48.2,48.2,0,0,1-16.19-2.74l0-11.69c3.52.25,12,.79,20.16.8h.52l-.06-12.86h-5c-16.5.07-17.82-13.46-17.84-18.53l0-5.72c0-13.19,8.1-17.49,18.22-17.85l0-7.92,4.24,0h.26l-.07-15.56h0l-.05-11.66a69.3,69.3,0,1,0,.58,138.6L123.85,182Z"/><path class="cls-6" d="M123.37,66.75h0l.07,15.56h4.3l0,8a62.57,62.57,0,0,1,16,2.69l.05,11.76c-5.57-.45-15.47-.83-20-.82h-.27l0,13.31,6.26,0c13.68-.06,16.58,11.11,16.6,18.53l0,3.84c.07,15.68-9.25,19.28-18.4,19.32l0,7.55h-4.3l.07,15.57h0l.05,11.66h0a69.3,69.3,0,0,0-.58-138.6h0Z"/><path class="cls-5" d="M123.18,103.92c-4.92,0-7.34.61-7.32,5.5v2.27c0,4,1.68,5.57,6.56,5.55h1.15l0-13.31Z"/><path class="cls-6" d="M124.34,145.19c3.91,0,7-.94,7-4.92l0-2.67c0-3.32-1-5.29-5.59-5.27h-2.12l.06,12.86Z"/><path class="cls-7" d="M122.43,117.24c-4.88,0-6.55-1.57-6.56-5.55v-2.27c0-4.89,2.4-5.5,7.32-5.5V82.31l-4.24,0,0,7.92c-10.12.36-18.24,4.66-18.22,17.85l0,5.72c0,5.07,1.34,18.6,17.84,18.53h4.56v-15.1Z"/><path class="cls-7" d="M103,144.39l0,11.69a48.2,48.2,0,0,0,16.19,2.74l0,7.66h3.88V145.19C115,145.18,106.54,144.64,103,144.39Z"/><path class="cls-1" d="M123.18,132.34h2.58c4.54,0,5.59,1.95,5.59,5.27l0,2.67c0,4-3.12,4.91-7,4.92h-1.16v21.28h4.9l0-7.55c9.15,0,18.47-3.64,18.4-19.32l0-3.84c0-7.42-2.92-18.59-16.6-18.53l-6.26,0h-.4Z"/><path class="cls-1" d="M123.18,82.31v21.61h.62c4.56,0,14.46.37,20,.82L143.78,93a62.57,62.57,0,0,0-16-2.69l0-8h-4.56Z"/><path class="cls-8" d="M245.17,102.39A123.85,123.85,0,0,1,40.58,217"/></g></g></svg>