<svg xmlns="http://www.w3.org/2000/svg" xmlns:xlink="http://www.w3.org/1999/xlink" viewBox="0 0 248.23 249.79"><defs><style>.cls-1,.cls-9{fill:none;}.cls-2{fill:#f9be7b;}.cls-3{fill:#83a5a5;}.cls-4{fill:#a0cebf;}.cls-5{fill:#f8f8f8;}.cls-6{fill:#d39997;}.cls-7{fill:#bc8282;}.cls-8{clip-path:url(#clip-path);}.cls-9{stroke:#1b172c;stroke-linejoin:round;stroke-width:2px;}</style><clipPath id="clip-path"><path class="cls-1" d="M120.08,55.64c7.53,6.85,5.43,14.51,2.68,21.66S117.09,92.12,120.08,99c-7.54-6.85-5.43-14.51-2.67-21.67S123.09,62.49,120.08,55.64Z"/></clipPath></defs><title>Asset 1</title><g id="Layer_2" data-name="Layer 2"><g id="Layer_1-2" data-name="Layer 1"><path class="cls-2" d="M127.51.05C54.55-1.84,1.71,55.75,0,120.68c-1.87,72.92,56.08,128.2,123.43,128.11A123.34,123.34,0,0,0,247.2,128.1C248.91,54.66,192.08,1.72,127.51.05Z"/><path class="cls-3" d="M180,120.9c3.88,0,7,2.42,7,5.37,0,.13-.17,12.31-9.06,20.94-.89.75-5.32,2-9.5,2.77l-.43.11a13.78,13.78,0,0,0-3.93,2v.59a28.76,28.76,0,0,1-2,10.35l-.43,1.06,4.9-6a6.92,6.92,0,0,1,3.17-2.18c3.13-.56,10.09-2,12.53-4.39,10.79-10.48,10.92-24.68,10.92-25.28,0-6.33-5.95-11.48-13.4-11.48-1,0-9,1.13-15.74,2.49v6.23C170.07,122.3,178.43,120.92,180,120.9Z"/><path class="cls-4" d="M53.94,177.13c0,5.48,13.43,16,18.3,16h47.84v-16Z"/><path class="cls-3" d="M120.08,177.13v16h49.2c4.87,0,16.94-10.55,16.94-16Z"/><path class="cls-3" d="M150.84,177.13a29.61,29.61,0,0,0,11.36-14.08,28.76,28.76,0,0,0,2-10.35V107.53H120.08v69.6Z"/><path class="cls-4" d="M120.08,107.53H76V152.7a29.24,29.24,0,0,0,13.31,24.43h30.76Z"/><rect class="cls-5" x="53.94" y="174.51" width="66.14" height="2.61"/><rect class="cls-4" x="120.08" y="174.51" width="66.14" height="2.61"/><path class="cls-5" d="M92.16,55.64c7.53,6.85,5.42,14.51,2.67,21.66S89.16,92.12,92.16,99c-7.55-6.85-5.44-14.51-2.68-21.67S95.17,62.49,92.16,55.64Z"/><path class="cls-6" d="M120.08,55.64c7.53,6.85,5.43,14.51,2.68,21.66S117.09,92.12,120.08,99c-7.54-6.85-5.43-14.51-2.67-21.67S123.09,62.49,120.08,55.64Z"/><path class="cls-7" d="M148,55.64c7.53,6.86,5.42,14.51,2.67,21.66S145,92.12,148,99c-7.55-6.85-5.44-14.51-2.68-21.67S151,62.49,148,55.64Z"/><path class="cls-6" d="M92.16,55.64c7.53,6.85,5.42,14.51,2.67,21.66S89.16,92.12,92.16,99c-7.55-6.85-5.44-14.51-2.68-21.67S95.17,62.49,92.16,55.64Z"/><g class="cls-8"><rect class="cls-7" x="120.23" y="24.4" width="73" height="175"/></g><path class="cls-5" d="M86.18,156.26h-.09c-2.23,0-4-2.14-4-4.78V114.8h8.19v36.68C90.23,154.12,88.41,156.26,86.18,156.26Z"/><path class="cls-9" d="M245.18,102.4A123.85,123.85,0,0,1,40.58,217"/></g></g></svg>