<svg xmlns="http://www.w3.org/2000/svg" viewBox="0 0 248.23 249.79"><defs><style>.cls-1{fill:#f9be7b;}.cls-2,.cls-3{fill:none;}.cls-2{stroke:#1b172c;stroke-linejoin:round;stroke-width:2px;}.cls-4{fill:#d39997;}.cls-5{fill:#83a5a5;}.cls-6{fill:#bc8282;}.cls-7{fill:#a0cebf;}</style></defs><title>Asset 8</title><g id="Layer_2" data-name="Layer 2"><g id="Layer_1-2" data-name="Layer 1"><path class="cls-1" d="M127.51.05C54.55-1.84,1.71,55.75,0,120.68c-1.87,72.92,56.08,128.2,123.43,128.11A123.34,123.34,0,0,0,247.2,128.1C248.91,54.66,192.08,1.72,127.51.05Z"/><path class="cls-2" d="M245.18,102.4A123.85,123.85,0,0,1,40.58,217"/><path class="cls-3" d="M123.73,74.4h-1a50.33,50.33,0,0,0-13.87,2.23A49.78,49.78,0,0,0,73.73,124.4a50.55,50.55,0,0,0,.63,7.88l9.23-2.6-4.42,17.39a50.22,50.22,0,0,0,43.56,27.31l1,0a50,50,0,0,0,50-50,50.93,50.93,0,0,0-.73-8.57l-9.2,2.73L168,101.1A50.4,50.4,0,0,0,123.73,74.4Z"/><path class="cls-4" d="M79.17,147.07l-5.41,21.26-12.32-12a70.33,70.33,0,0,0,61.29,38v-20A50.22,50.22,0,0,1,79.17,147.07Z"/><path class="cls-5" d="M123.73,74.4A50.4,50.4,0,0,1,168,101.1l5.1-21.33,12.47,11.81A70.5,70.5,0,0,0,123.73,54.4h-1v20Z"/><path class="cls-6" d="M202,107.2l-.31-.29L185.55,91.58,173.08,79.77,168,101.1l-4.18,17.46,9.2-2.73a50.93,50.93,0,0,1,.73,8.57,50,50,0,0,1-50,50l-1,0v20l1,0a70,70,0,0,0,68.53-84.3l9.47-2.81Z"/><path class="cls-7" d="M79.17,147.07l4.42-17.39-9.23,2.6a50.55,50.55,0,0,1-.63-7.88,49.78,49.78,0,0,1,35.13-47.76,50.33,50.33,0,0,1,13.87-2.23v-20a69.89,69.89,0,0,0-69,70c0,1.61.06,3.22.17,4.83a69.1,69.1,0,0,0,1.11,8.5l-9.82,2.77,16.25,15.83,12.32,12Z"/></g></g></svg>