<svg xmlns="http://www.w3.org/2000/svg" viewBox="0 0 25.54 25.52"><defs><style>.cls-1{fill:#f8f8f8;}</style></defs><title>Asset 3</title><g id="Layer_2" data-name="Layer 2"><g id="Layer_1-2" data-name="Layer 1"><path class="cls-1" d="M20.6,0H4.94A4.94,4.94,0,0,0,0,4.93V20.59a4.94,4.94,0,0,0,4.94,4.93H20.6a4.94,4.94,0,0,0,4.94-4.93V4.93A4.94,4.94,0,0,0,20.6,0Zm-3,9-.26,3.3H14V23.81H9.72V12.32H7.43V9H9.72V6.8a5.89,5.89,0,0,1,.74-3.43A4,4,0,0,1,14,1.71a14.38,14.38,0,0,1,4.1.41L17.53,5.5a7.83,7.83,0,0,0-1.84-.27c-.89,0-1.69.32-1.69,1.2V9Z"/></g></g></svg>