<svg xmlns="http://www.w3.org/2000/svg" viewBox="0 0 248.18 249.79"><defs><style>.cls-1{fill:#f9be7b;}.cls-2{fill:#83a5a5;}.cls-3{fill:#a0cebf;}.cls-4{fill:#e7e7e7;}.cls-5{fill:#f8f8f8;}.cls-6{fill:#bc8282;}.cls-7{fill:#d39997;}.cls-8{fill:none;stroke:#1b172c;stroke-linejoin:round;stroke-width:2px;}</style></defs><title>Asset 5</title><g id="Layer_2" data-name="Layer 2"><g id="Layer_1-2" data-name="Layer 1"><path class="cls-1" d="M146.9,176.88c-1.57.75-3.17,1.43-4.82,2C143.73,178.31,145.33,177.63,146.9,176.88Z"/><path class="cls-1" d="M168.15,158.5q-1.46,2.15-3.09,4.13Q166.7,160.65,168.15,158.5Z"/><path class="cls-1" d="M157.78,169.91a53.1,53.1,0,0,1-6.32,4.49A53.1,53.1,0,0,0,157.78,169.91Z"/><path class="cls-1" d="M151.46,82.55A53,53,0,0,1,157.78,87,53,53,0,0,0,151.46,82.55Z"/><path class="cls-1" d="M123.62,182.18a53.69,53.69,0,0,0,16-2.42,53.69,53.69,0,0,1-16,2.42Z"/><path class="cls-1" d="M165.06,94.31q1.63,2,3.09,4.14Q166.7,96.31,165.06,94.31Z"/><path class="cls-1" d="M142.08,78a51.18,51.18,0,0,1,4.82,2A51.18,51.18,0,0,0,142.08,78Z"/><polygon class="cls-1" points="121.19 132.47 123.62 134.89 145.39 156.66 123.62 134.89 121.19 132.47"/><path class="cls-1" d="M127.51.05C54.55-1.84,1.71,55.75,0,120.68c-1.87,72.92,56.08,128.2,123.43,128.11A123.34,123.34,0,0,0,247.2,128.1C248.91,54.66,192.08,1.72,127.51.05ZM51.44,79.12,79.37,51.18A6.1,6.1,0,0,1,88,59.81L60.06,87.74a6.1,6.1,0,1,1-8.62-8.62ZM179.56,189a6.1,6.1,0,1,1-8.63,8.62l-9.71-9.71a5.5,5.5,0,0,1-.69-.84,69.25,69.25,0,0,1-73.83,0,5.5,5.5,0,0,1-.69.84l-9.71,9.71A6.1,6.1,0,0,1,67.68,189L77,179.67a69.25,69.25,0,1,1,93.25,0ZM195.79,87.74a6.08,6.08,0,0,1-8.62,0L159.24,59.81a6.1,6.1,0,0,1,8.62-8.63l27.93,27.94A6.08,6.08,0,0,1,195.79,87.74Z"/><path class="cls-1" d="M139.59,77.19a53.69,53.69,0,0,0-16-2.42h0A53.69,53.69,0,0,1,139.59,77.19Z"/><path class="cls-2" d="M167.86,51.18a6.1,6.1,0,0,0-8.62,8.63l27.93,27.93a6.1,6.1,0,1,0,8.62-8.62Z"/><path class="cls-3" d="M60.06,87.74,88,59.81a6.1,6.1,0,0,0-8.63-8.63L51.44,79.12a6.1,6.1,0,1,0,8.62,8.62Z"/><path class="cls-2" d="M192.86,128.47a69.24,69.24,0,0,0-69.24-69.24V74.77a53.69,53.69,0,0,1,16,2.42q1.26.39,2.49.84a53.35,53.35,0,0,1,9.38,4.52A53,53,0,0,1,157.78,87a54.43,54.43,0,0,1,7.28,7.28q1.63,2,3.09,4.14a53.74,53.74,0,0,1,0,60.05q-1.46,2.15-3.09,4.13a53.85,53.85,0,0,1-7.28,7.28,53.1,53.1,0,0,1-6.32,4.49,51.42,51.42,0,0,1-4.56,2.48c-1.57.75-3.17,1.43-4.82,2q-1.23.45-2.49.84a53.69,53.69,0,0,1-16,2.42v15.54a68.89,68.89,0,0,0,36.91-10.66,5.5,5.5,0,0,0,.69.84l9.71,9.71a6.1,6.1,0,1,0,8.63-8.62l-9.32-9.32A69.07,69.07,0,0,0,192.86,128.47Z"/><path class="cls-3" d="M123.62,182.18h0A53.7,53.7,0,0,1,83.87,92.37a53.34,53.34,0,0,1,11.9-9.82,52.64,52.64,0,0,1,11.88-5.36,53.64,53.64,0,0,1,16-2.42h0V59.23A69.24,69.24,0,0,0,77,179.67L67.68,189a6.1,6.1,0,1,0,8.62,8.62L86,187.9a5.5,5.5,0,0,0,.69-.84,68.92,68.92,0,0,0,36.92,10.66V182.18Z"/><path class="cls-4" d="M123.62,74.77V97.6h0a3.16,3.16,0,0,1,2.72,2,3.06,3.06,0,0,1,.23,1.18v28.2l23.27,23.27a3.19,3.19,0,0,1,0,4.46,3.37,3.37,0,0,1-1,.69,3.22,3.22,0,0,1-1.18.23,3.15,3.15,0,0,1-2.23-.92l-21.77-21.78v47.29h0a53.69,53.69,0,0,0,16-2.42q1.26-.39,2.49-.84c1.65-.61,3.25-1.29,4.82-2a51.42,51.42,0,0,0,4.56-2.48,53.1,53.1,0,0,0,6.32-4.49,53.85,53.85,0,0,0,7.28-7.28q1.63-2,3.09-4.13a53.74,53.74,0,0,0,0-60q-1.46-2.15-3.09-4.14A54.43,54.43,0,0,0,157.78,87a53,53,0,0,0-6.32-4.48A53.35,53.35,0,0,0,142.08,78q-1.23-.45-2.49-.84a53.69,53.69,0,0,0-16-2.42Z"/><path class="cls-5" d="M123.62,173.91v-39l-2.43-2.42a3.15,3.15,0,0,1-.92-2.23v-29.5a3.16,3.16,0,0,1,3.15-3.15h.2V74.77a53.64,53.64,0,0,0-16,2.42,52.64,52.64,0,0,0-11.88,5.36,53.69,53.69,0,0,0-11.9,82,53.12,53.12,0,0,0,5.59,5.33,53.53,53.53,0,0,0,34.16,12.27Z"/><path class="cls-6" d="M123.62,134.89l21.77,21.78a3.15,3.15,0,0,0,2.23.92,3.22,3.22,0,0,0,1.18-.23,3.37,3.37,0,0,0,1-.69,3.19,3.19,0,0,0,0-4.46l-23.27-23.27v-28.2a3.06,3.06,0,0,0-.23-1.18,3.16,3.16,0,0,0-2.72-2Z"/><path class="cls-7" d="M121.66,98.13a3.13,3.13,0,0,0-1.39,2.61v29.5a3.15,3.15,0,0,0,.92,2.23l2.43,2.42V97.6h-.2A3.13,3.13,0,0,0,121.66,98.13Z"/><path class="cls-8" d="M245.13,102.4A123.85,123.85,0,0,1,40.53,217"/></g></g></svg>