<svg xmlns="http://www.w3.org/2000/svg" viewBox="0 0 184.99 184.99"><defs><style>.cls-1{fill:#a0cebf;}.cls-2{fill:#f4a95c;}.cls-3{fill:#f8f8f8;}.cls-4{fill:#fdefc5;}.cls-5{fill:#8c6011;}.cls-6{fill:#604301;}.cls-7{fill:#fee69f;}.cls-8{fill:#f9be7b;}.cls-9{fill:none;stroke:#fee69f;stroke-linecap:round;stroke-linejoin:round;stroke-width:0;}.cls-10{fill:#1b172c;}</style></defs><title>Asset 3</title><g id="Layer_2" data-name="Layer 2"><g id="Layer_1-2" data-name="Layer 1"><path class="cls-1" d="M25.66,155.73c.2-4.59.93-8.55,2.59-10.69,7-9.06,44.38-11.49,44.38-11.49l1.61-18.33a45.91,45.91,0,0,1-3.69-4c-.06.23-.1.46-.18.68a7,7,0,0,1-1.43,2.34,6,6,0,0,1-2.5,1.5,7.06,7.06,0,0,1-1.35.23l-.17,0h0l-.26,0h-.05l-.23,0-.44,0a2.83,2.83,0,0,1-.62-.13c-.26-.07-.5-.15-.75-.24a4.51,4.51,0,0,1-1.17-.68,6.12,6.12,0,0,1-2.22-3.45,12.74,12.74,0,0,1-.37-2.68c0-1.41.06-2.18.06-2.18v0l.06-.52c0-.32.11-.86.22-1.54a25.24,25.24,0,0,1,1.66-5.23l.22-.48a13.71,13.71,0,0,1-4.79-6.6c-2.13-5.44-1.73-11.16.89-12.77-.29-1.9-.49-3.81-.61-5.71v0S55.22,61.16,59.41,52c.26-.56.46-.84.72-1.52s.66-1.39,1-2.16a28.36,28.36,0,0,1,3.09-4.85c.62-.86,1.42-1.63,2.16-2.5s1.66-1.64,2.63-2.38a31.69,31.69,0,0,1,6.49-4.09,38.42,38.42,0,0,1,7.78-2.59,47.52,47.52,0,0,1,8.38-.9H92c22,0,36.32,14.77,36.75,37.69a294.43,294.43,0,0,1,7.51,68.38c8.4,1.78,16.37,4.37,19.24,8.09,1.49,1.93,2.24,5.33,2.52,9.35A90.67,90.67,0,0,0,183,92a91.71,91.71,0,0,0-1.51-16.58l1-.18a92,92,0,1,0-156.8,80.49Z"/><path class="cls-1" d="M61.94,99.59a27.07,27.07,0,0,0-.32,5.07c0,1.14.1,1.92.1,1.92v0s.1.67.31,1.78a7.42,7.42,0,0,0,.66,1.77,3.18,3.18,0,0,0,1.13,1.31c.09,0,.22.18.26.14s0,0,.07,0,0,.06.21.07l.44.06.15,0h0a3.65,3.65,0,0,0,.47,0A2.32,2.32,0,0,0,67,110.44a10.81,10.81,0,0,0,.91-2.75,61.39,61.39,0,0,1-4.68-8.19A4.06,4.06,0,0,1,62,99.26C62,99.37,62,99.48,61.94,99.59Z"/><path class="cls-2" d="M92,183V165.1c-19.25-14.24-19.37-31.55-19.37-31.55S35.26,136,28.25,145c-1.66,2.14-2.39,6.1-2.59,10.69,1.55,1.61,3.16,3.17,4.82,4.66l.66-.74A90.83,90.83,0,0,0,92,183Z"/><path class="cls-3" d="M92,165.1V141.21c-10.7,0-19.37-3.43-19.37-7.66C72.63,133.55,72.75,150.86,92,165.1Z"/><path class="cls-4" d="M92,141.21V123.86h0c-5.56,0-11-2.06-16.14-6.13l.77-1c4.93,3.89,10.1,5.86,15.37,5.86h0V72.76a7.4,7.4,0,0,0-.78,3.15A16,16,0,0,1,88,72.46a7.63,7.63,0,0,0-1,3.39,16.17,16.17,0,0,1-3.17-3.52,7.6,7.6,0,0,0-1,3.36,16.1,16.1,0,0,1-3.09-3.59,7.66,7.66,0,0,0-1.13,3.34,16,16,0,0,1-3-3.66,7.46,7.46,0,0,0-1.2,3.31,16.09,16.09,0,0,1-2.94-3.72,7.59,7.59,0,0,0-1.27,3.29,16,16,0,0,1-2.85-3.79A7.6,7.6,0,0,0,66,74.13a15.71,15.71,0,0,1-2.77-3.86,7.62,7.62,0,0,0-1.42,3.23,15.85,15.85,0,0,1-2.69-3.9c-.29.37-2.34,3.58-2.6,4.06.12,1.9.32,3.81.61,5.71-2.62,1.61-3,7.33-.89,12.77A13.71,13.71,0,0,0,61,98.74a19.05,19.05,0,0,1,1-2c.13.32.26.65.4,1A12.59,12.59,0,0,0,62,99.26a4.06,4.06,0,0,0,1.25.24,61.39,61.39,0,0,0,4.68,8.19c.83,1.23,1.71,2.4,2.61,3.52a45.91,45.91,0,0,0,3.69,4l-1.61,18.33C72.63,137.78,81.3,141.21,92,141.21Z"/><path class="cls-2" d="M67,110.44a2.32,2.32,0,0,1-1.61,1.28,3.65,3.65,0,0,1-.47,0h0l-.15,0-.44-.06c-.19,0-.21,0-.21-.07s-.05,0-.07,0-.17-.11-.26-.14a3.18,3.18,0,0,1-1.13-1.31,7.42,7.42,0,0,1-.66-1.77c-.21-1.11-.31-1.78-.31-1.78v0s-.07-.78-.1-1.92a27.07,27.07,0,0,1,.32-5.07c0-.11.05-.22.07-.33a12.59,12.59,0,0,1,.42-1.54c-.14-.32-.27-.65-.4-1a19.05,19.05,0,0,0-1,2l-.22.48a25.24,25.24,0,0,0-1.66,5.23c-.11.68-.19,1.22-.22,1.54l-.06.52v0s0,.77-.06,2.18a12.74,12.74,0,0,0,.37,2.68,6.12,6.12,0,0,0,2.22,3.45,4.51,4.51,0,0,0,1.17.68c.25.09.49.17.75.24a2.83,2.83,0,0,0,.62.13l.44,0,.23,0h.05l.26,0h0l.17,0a7.06,7.06,0,0,0,1.35-.23,6,6,0,0,0,2.5-1.5,7,7,0,0,0,1.43-2.34c.08-.22.12-.45.18-.68-.9-1.12-1.78-2.29-2.61-3.52A10.81,10.81,0,0,1,67,110.44Z"/><path class="cls-5" d="M59.08,69.6a15.85,15.85,0,0,0,2.69,3.9,7.62,7.62,0,0,1,1.42-3.23A15.71,15.71,0,0,0,66,74.13a7.6,7.6,0,0,1,1.34-3.26,16,16,0,0,0,2.85,3.79,7.59,7.59,0,0,1,1.27-3.29,16.09,16.09,0,0,0,2.94,3.72,7.46,7.46,0,0,1,1.2-3.31,16,16,0,0,0,3,3.66,7.66,7.66,0,0,1,1.13-3.34,16.1,16.1,0,0,0,3.09,3.59,7.6,7.6,0,0,1,1-3.36A16.17,16.17,0,0,0,87,75.85a7.63,7.63,0,0,1,1-3.39,16,16,0,0,0,3.25,3.45A7.4,7.4,0,0,1,92,72.76h0V31.05h-.31a47.52,47.52,0,0,0-8.38.9,38.42,38.42,0,0,0-7.78,2.59A31.69,31.69,0,0,0,69,38.62c-1,.74-1.79,1.61-2.63,2.38s-1.54,1.64-2.16,2.5a28.36,28.36,0,0,0-3.09,4.85c-.37.77-.74,1.48-1,2.16s-.46,1-.72,1.52c-4.19,9.13-2.94,21.65-2.94,21.65v0C56.74,73.18,58.79,70,59.08,69.6Z"/><path class="cls-6" d="M114.61,134h0a132,132,0,0,1-4.09,13.45l-.06.17c-.4,1.11-.83,2.27-1.29,3.47-.22.58-.44,1.16-.68,1.76-.17.44-.35.89-.53,1.34-.47,1.15-1,2.32-1.47,3.55A239.06,239.06,0,0,1,93.79,183h0a239.06,239.06,0,0,0,12.69-25.25A151.67,151.67,0,0,0,114.61,134Z"/><path class="cls-7" d="M108,154.17c.18-.45.36-.9.53-1.34.24-.6.46-1.18.68-1.76.46-1.2.89-2.36,1.29-3.47l.06-.17A132,132,0,0,0,114.6,134h0l.34,0c.32,0-.53-.06-1.55-.14a2.82,2.82,0,0,1-2.49-2.47l-1.39-15.85A53.89,53.89,0,0,0,120.7,99.65c2.43,0,5.33-2.91,7.07-7.36,2.13-5.44,1.72-11.16-.9-12.77h0a65.47,65.47,0,0,0,.67-6.8H92v0h0v49.85c5.27,0,10.44-2,15.37-5.86l.77,1C103,121.8,97.56,123.86,92,123.86V183h0l1.79,0a239.06,239.06,0,0,0,12.69-25.25C107,156.49,107.48,155.32,108,154.17Z"/><path class="cls-8" d="M123.65,135c-3.44-.45-6.47-.77-8.7-1l-.34,0h0a151.67,151.67,0,0,1-8.12,23.73A239.06,239.06,0,0,1,93.8,183,90.78,90.78,0,0,0,158,154.55c-.28-4-1-7.42-2.52-9.35-2.87-3.72-10.84-6.31-19.24-8.09-1.19-.25-2.4-.49-3.59-.71C129.55,135.83,126.47,135.36,123.65,135Z"/><line class="cls-9" x1="92" y1="165.1" x2="92" y2="141.21"/><line class="cls-9" x1="92" y1="165.1" x2="92" y2="182.99"/><line class="cls-9" x1="92" y1="123.86" x2="92" y2="141.21"/><path class="cls-6" d="M92,49.76v23h35.54a65.47,65.47,0,0,1-.67,6.8h0c2.62,1.61,3,7.33.9,12.77-1.74,4.45-4.64,7.34-7.07,7.36a53.89,53.89,0,0,1-11.18,15.91l1.39,15.85a2.82,2.82,0,0,0,2.49,2.47c1,.08,1.87.16,1.55.14,2.23.2,5.26.52,8.7,1,2.82.37,5.9.84,9,1.41,1.19.22,2.4.46,3.59.71a294.43,294.43,0,0,0-7.51-68.38C128.32,45.81,114,31.05,92,31h0Z"/><path class="cls-10" d="M107.37,116.75c-4.93,3.89-10.1,5.86-15.37,5.86h0c-5.27,0-10.44-2-15.37-5.86l-.77,1C81,121.8,86.43,123.86,92,123.86h0c5.56,0,11-2.06,16.14-6.13Z"/><path class="cls-10" d="M181.48,75.42A91.71,91.71,0,0,1,183,92,91.1,91.1,0,0,1,93.8,183h0L92,183h0a90.83,90.83,0,0,1-60.86-23.34l-.66.74-.68.75A93,93,0,0,0,185,92a94,94,0,0,0-1.54-17l-1,.19Z"/></g></g></svg>