<svg xmlns="http://www.w3.org/2000/svg" viewBox="0 0 248.18 249.79"><defs><style>.cls-1{fill:#a0cebf;}.cls-2,.cls-7{fill:none;}.cls-3{fill:#f8f8f8;}.cls-4{fill:#e7e7e7;}.cls-5{fill:#f9be7b;}.cls-6{fill:#f4a95c;}.cls-7{stroke:#1b172c;stroke-linejoin:round;stroke-width:2px;}.cls-8{fill:#d39997;}.cls-9{fill:#bc8282;}</style></defs><title>Asset 9</title><g id="Layer_2" data-name="Layer 2"><g id="Layer_1-2" data-name="Layer 1"><path class="cls-1" d="M127.51.05C54.55-1.84,1.71,55.75,0,120.68c-1.87,72.92,56.08,128.2,123.43,128.11A123.34,123.34,0,0,0,247.2,128.1C248.91,54.66,192.08,1.72,127.51.05Z"/><path class="cls-2" d="M133.31,60.47H113.92A19.87,19.87,0,0,0,94.08,80.32v36.92h59.08V80.32A19.88,19.88,0,0,0,133.31,60.47Z"/><path class="cls-3" d="M94.08,80.32a19.87,19.87,0,0,1,19.84-19.85h10V49.4h-10A31,31,0,0,0,83,80.32v31.15H94.08Z"/><path class="cls-4" d="M133.31,60.47a19.88,19.88,0,0,1,19.85,19.85v36.92h11.07V80.32A31,31,0,0,0,133.31,49.4H124V60.47Z"/><polygon class="cls-4" points="94.08 114.01 94.08 111.47 83 111.47 83 114.01 83 117.24 94.08 117.24 94.08 114.01"/><polygon class="cls-5" points="123.62 137.09 123.62 117.24 96.5 117.24 94.08 117.24 83 117.24 68.23 117.24 68.23 199.4 123.62 199.4 123.62 154.63 123.62 137.09"/><polygon class="cls-6" points="164.23 117.24 153.16 117.24 150.73 117.24 123.62 117.24 123.62 137.09 123.62 154.63 123.62 199.4 179 199.4 179 117.24 164.23 117.24"/><path class="cls-7" d="M245.13,102.4A123.85,123.85,0,0,1,40.53,217"/><path class="cls-8" d="M123.62,141.2v-1.4a15.92,15.92,0,0,0-4.37.81A12.06,12.06,0,0,0,114,159.89a2.45,2.45,0,0,1,.61,1.72c0,3.1,0,6.2,0,9.3s0,6.27,0,9.41a4.34,4.34,0,0,0,4.7,4.68h4.3V141.2Z"/><path class="cls-9" d="M132.61,179.86c0-6,0-11.92,0-17.88a3.05,3.05,0,0,1,.84-2.35,8,8,0,0,0,1.82-3c1.69-4.83,1-9.3-2.59-13a11.47,11.47,0,0,0-9-3.75V185h3.8C131,185,132.61,183.4,132.61,179.86Z"/></g></g></svg>