<svg xmlns="http://www.w3.org/2000/svg" xmlns:xlink="http://www.w3.org/1999/xlink" viewBox="0 0 989 662.82"><defs><style>.cls-1{fill:#fff;opacity:0.2;}.cls-2,.cls-3{opacity:0.4;}.cls-2{fill:url(#linear-gradient);}.cls-3{fill:url(#linear-gradient-2);}.cls-4,.cls-7{fill:#4f6e72;}.cls-4{opacity:0.1;}.cls-5{fill:#241833;}.cls-6{fill:#60858a;}.cls-8{fill:#be7a5f;}.cls-9{fill:#f9be7b;}.cls-10{fill:#f8b974;}.cls-11{fill:#f4a95c;}.cls-12{fill:#fffadd;}.cls-13{fill:#fffdf4;}.cls-14,.cls-17{fill:none;stroke:#1b172c;stroke-linejoin:round;}.cls-14{stroke-width:1.25px;}.cls-15{fill:#6b3b15;}.cls-16{fill:#f0c6ad;}.cls-18{fill:#5a2e11;}.cls-19{fill:#eb703d;}.cls-20{fill:#a0cebf;}.cls-21{fill:#100e09;}.cls-22{fill:#fceae6;}</style><linearGradient id="linear-gradient" x1="667.03" y1="442.1" x2="667.03" y2="36.68" gradientUnits="userSpaceOnUse"><stop offset="0" stop-color="#fff"/><stop offset="1" stop-color="#fff" stop-opacity="0"/></linearGradient><linearGradient id="linear-gradient-2" x1="135.49" y1="462.89" x2="569.81" y2="28.57" xlink:href="#linear-gradient"/></defs><title>Asset 2</title><g id="Layer_2" data-name="Layer 2"><g id="Layer_1-2" data-name="Layer 1"><path class="cls-1" d="M967.22,336.56S939.23,446.19,801.94,442c-117.24-3.59-163.65-111-245.57-96.7s-156,21-191.28-67.4C323.75,174.31,339.75,84.27,476.57,48.42s192.74,24.17,301.76,0S1047.65,136.71,967.22,336.56Z"/><path class="cls-2" d="M967.22,336.56S939.23,446.19,801.94,442c-117.24-3.59-163.65-111-245.57-96.7s-156,21-191.28-67.4C323.75,174.31,339.75,84.27,476.57,48.42s192.74,24.17,301.76,0S1047.65,136.71,967.22,336.56Z"/><path class="cls-1" d="M24.66,119.55S56.37-4.63,211.88.13C344.67,4.21,397.24,114.82,490,98.67S666.74,85.9,706.69,186c46.82,117.31,28.7,219.29-126.27,259.9s-218.32-27.38-341.8,0S-66.43,345.91,24.66,119.55Z"/><path class="cls-3" d="M24.66,119.55S56.37-4.63,211.88.13C344.67,4.21,397.24,114.82,490,98.67S666.74,85.9,706.69,186c46.82,117.31,28.7,219.29-126.27,259.9s-218.32-27.38-341.8,0S-66.43,345.91,24.66,119.55Z"/><path class="cls-4" d="M97.28,531.52s306.84-6.45,422.57,9.55-64.59,20.69-243.92,19.22c-173.67-1.42-250.36-6.55-260.84-10.47C-.55,544,12.29,534.44,97.28,531.52Z"/><path class="cls-4" d="M915.9,625.49a645,645,0,0,0-65.14-10.65c53.9-21.52,86.24-46.69,36.17-58.84-92.67-22.47-211-2.47-211-2.47-23.29,2.11-25.27,22.37-21.48,29.65,2.37,4.54-17.89,22.44-24.78,38.92-66.44,7.28-90.23,23-85.55,29.48,7.14,9.92,19.11,10.33,223.79,11.21C894.54,663.34,1051.56,655,915.9,625.49Z"/><path class="cls-5" d="M58,458.68s-10.89,85.73-1.62,86.89,26.12-78.25,26.12-78.25Z"/><path class="cls-5" d="M496.71,458.68s10.88,85.73,1.61,86.89-26.12-78.25-26.12-78.25Z"/><path class="cls-6" d="M48.81,409s5-101.2,55.71-132.37c51.89-31.92,148.12-32.79,262.11-18.45,137,17.23,120.77,146.67,120.77,146.67,36,1.4,51.48,8.41,56.33,45.31C550,497.67,476.36,488.73,387,492.77,272.31,498,87.88,497.16,48.34,488.38S-3.1,435.22,48.81,409Z"/><path class="cls-7" d="M250.71,410.15s356.44,6.93,108.84,38.21c-60.91,7.69-216,4.44-239.93-.23S-30.19,422,250.71,410.15Z"/><path class="cls-5" d="M79.35,333.85s74.05-21.43,82.4-21,8.95-28.54,21.18-19,7.09,24.56,8.33,30.6,32.79,49.91,27.34,62.43-23.28,34-102.82,45.47c-1.51.22-36.43,21.21-30.7-3.38,0,0-7.75-21.5-23.88-72-4.92-15.38-19-15.49-8.29-19.71S79.35,333.85,79.35,333.85Z"/><path class="cls-8" d="M222.19,184.29s-9.59,51.63-17.62,53.35c-18,3.84-33.43,1.36-56.84,59.85S134,440.29,194.83,444.3c17.83,1.18,125-34.29,64.16-80.92-42.41-32.49-1.27-92.75-4.46-109.73s-31.34,12.78-6.14-40.78Z"/><path class="cls-8" d="M223,174.19s31.27-9.9,41.39,1.87,6.56,51.07-14.9,54.43C216,235.73,205.69,188.5,223,174.19Z"/><path class="cls-8" d="M185.71,427.37s55.42-164.88,100-165.65,75.76,157.91,84.95,165.17,30.9,5.58,20.69,9.51-3,2.83-27.94,1.13-70.1-90.07-74.25-90.93-24.09,94.85-76.22,97C184,444.74,185.71,427.37,185.71,427.37Z"/><path class="cls-8" d="M208.82,426.43s55.43-164.88,100-165.65,75.76,157.91,85,165.17,30.9,5.58,20.69,9.51-3,2.83-27.94,1.13-70-91-74.25-90.93c-17.63.16-24.1,94.85-76.22,97C207.14,443.8,208.82,426.43,208.82,426.43Z"/><path class="cls-8" d="M247.8,247.54s112-5.13,96.17,38.77c-9.15,25.35-57.12,35.08-93.5,26.92S232,240.92,247.8,247.54Z"/><path class="cls-5" d="M245.82,189.19a4.87,4.87,0,0,1-4.31,3.73c-2.47.33-3.48-1.8-5.09-.91s-1.87,2.19-1.48,3.15,1.52-.65,2.79-.7,4.82,2.15,7.62-.43C247.25,192.28,246.94,187.86,245.82,189.19Z"/><path class="cls-5" d="M256.48,188.46s2.3,1.75,4,1.21,2.37-2.56,3.53-2.84,3.85,2.23,3.05,2.65-1.65,0-2.12.09-1.54,2.45-4.47,2.63S254.12,188.35,256.48,188.46Z"/><path class="cls-5" d="M326.68,422.14c2.26-.51,40.31-3,44.2-9.4s-32.37-140.25-66.32-143S178,405,169.65,426.11s44.23,20.08,70.13,16.45c42.9-6,53.7-84.44,54.72-77.44C297.44,385.31,316.47,424.43,326.68,422.14Z"/><path class="cls-5" d="M368.51,415.14s20.46-3.65,21.35-7.32-31.65-115.35-56.79-134.55-44.72,9.48-42.2,20.32S349.86,425,368.51,415.14Z"/><path class="cls-9" d="M207,235.78s10.48,27.51,30.12,23.56c12-2.42,2.28-12.11,8.17-12.26s19.51-.19,25.81,1.69,4.83,46.52.08,57.09-60.59,55.22-70.79,70.37-22.08,61-30.27,60.78-48-21.12-39.67-84.23,25.88-96.17,37.86-105.47S203.5,229.16,207,235.78Z"/><path class="cls-8" d="M164.18,284.29s39.77,70.39,71.9,67.06,49.38-84.91,76.74-80.37c27.6,4.58,26.8-6.31.25-10.57-33.65-5.41-62.64,30.17-75.63,45.26-2.34,2.73-33.26-50.79-47.82-53.32S161.25,276.35,164.18,284.29Z"/><path class="cls-10" d="M219.71,283.16s-25.58,26.81-38.6,32.29-23.39-26.75-17.8-45.13,10.46-30.47,25.87-25.4S219.71,276,219.71,283.16Z"/><path class="cls-8" d="M250.31,231.5s20.17,46.84,36.58,44.08,51.48-13.49,39.67-18.63c-15.82-6.9-35.09-13.54-58.53-25.57C251.57,222.93,250.31,231.5,250.31,231.5Z"/><path class="cls-11" d="M185.46,315.78S168,302.35,162.1,291.28,161,317,170.17,329.77s41.42,25.41,48.16,16.48C218.33,346.25,205.18,338.13,185.46,315.78Z"/><path class="cls-12" d="M319.41,416.36s45.66-12.83,47.81-10,4.23,10.48,2.7,11S328.92,431,325.29,429,315.7,417.53,319.41,416.36Z"/><path class="cls-12" d="M367.75,405.58s14.78-7.67,18.45-7.85,5.1,7.91,5.4,9.66-22.6,9-25.39,8.71S359.15,409.78,367.75,405.58Z"/><path class="cls-5" d="M369.55,422.38s21.2-10.85,24.26-8.54,10,14.55,21.7,17.85c0,0-8.57,9.84-10.83,14.15s-21.61,1.12-30-9.47C371.74,432.7,364.87,423.93,369.55,422.38Z"/><path class="cls-13" d="M378.56,425.78s11.51-7.5,14.09-6.12-1.5,1.39-7,5.84S374.34,431.06,378.56,425.78Z"/><path class="cls-13" d="M386.31,430.1s11.51-7.51,14.09-6.12-1.5,1.39-7,5.83S382.09,435.37,386.31,430.1Z"/><path class="cls-13" d="M392.42,434s11.51-7.51,14.09-6.12-1.5,1.39-7.05,5.83S388.2,439.25,392.42,434Z"/><path class="cls-12" d="M413.65,431s-10.58,15.8-20,13.93c-6.53-1.3-19-8.55-19-8.55,1.23,2.71,7.17,7.07,13.07,10.16s15.87,7.08,26.33,2.22S428.14,435.84,413.65,431Z"/><path class="cls-5" d="M347.11,429.48s22.16-9.41,24.31-6.21,6.35,18.06,16.38,24.93c0,0-11.28,6.82-14.81,10.27s-20.86-5.72-25.46-18.62C345.93,435.37,344.86,429.18,347.11,429.48Z"/><path class="cls-13" d="M354.62,430.84s13.32-3.63,15.32-1.48-1.86.87-8.56,3.42S348.92,434.61,354.62,430.84Z"/><path class="cls-13" d="M360.59,437.45s13.33-3.63,15.33-1.47-1.87.87-8.56,3.42S354.9,441.22,360.59,437.45Z"/><path class="cls-13" d="M365.15,443.13s13.32-3.63,15.32-1.47-1.86.87-8.55,3.42S359.45,446.9,365.15,443.13Z"/><path class="cls-12" d="M386.25,446.94s-13.6,17.69-25.83,6.92c-5-4.43-12.89-14-12.89-14,.3,3,4.54,9.09,9.15,13.94s12.8,11.86,24.28,10.46S398.45,456.2,386.25,446.94Z"/><path class="cls-5" d="M254.44,209.58a10,10,0,0,1-4.13-1.13l.9-1.7c.75.39,3.16,1.36,4.31.66.35-.75-1.18-5.41-3.36-9.89l1.73-.85c2.4,4.93,4.8,11.07,2.62,12.39A4,4,0,0,1,254.44,209.58Z"/><path class="cls-5" d="M328.67,270c-7.22-7.16-17.09-5.83-17.19-5.82l-.28-1.9c.45-.06,10.91-1.5,18.83,6.36Z"/><path class="cls-12" d="M367.06,405.77c-.35-1.23-34.64-123.33-55.49-130.45L312,274c21.56,7.37,55,126.37,56.41,131.43Z"/><path class="cls-8" d="M266.88,230.8a25.86,25.86,0,0,0,6.51-8.5c6-12.56-1.67-26.39-4.6-25.59S261.63,221,255,225.82s-5.35,5.48-2.22,10.94S267.41,232.65,266.88,230.8Z"/><path class="cls-5" d="M275.27,271l-1.13-1.55c.68-.5,16.81-12.11,31.68-13.58,10.66-1,23.28,4.89,28.12,13.26l-1.66,1c-4.42-7.64-16.46-13.29-26.27-12.31C291.66,259.24,275.43,270.92,275.27,271Z"/><path class="cls-5" d="M311.26,265.2h0c-1.07,0-1.07,0-1.07-7.6h1.93c0,3.31,0,4.93.05,5.71h.18C312.25,264.28,312.21,265.2,311.26,265.2Z"/><path class="cls-5" d="M222.78,278.53c-.09-.21-9.06-21-25.92-32.28l1.07-1.6c17.35,11.62,26.53,32.91,26.62,33.13Z"/><path class="cls-5" d="M242.77,218.91l-1.34-1.38c.13-.12,3.06-2.94,6.71-2.86a7.38,7.38,0,0,1,5.29,2.45l-1.38,1.34a5.53,5.53,0,0,0-3.94-1.87C245.32,216.56,242.8,218.88,242.77,218.91Z"/><path class="cls-5" d="M266.93,275.08c-.08-3.69-4.65-9.54-6.4-11.49L262,262.3c.28.31,6.78,7.59,6.89,12.74Z"/><path class="cls-5" d="M294.5,365.12S261.82,453.5,170.09,437c0,0,33.72,17.62,60.49,11.25,52.64-12.51,71.16-61.33,71.16-61.33C301.64,383.26,294.5,365.12,294.5,365.12Z"/><path class="cls-12" d="M301.1,387.26c-.16-.32-16.72-32.44-18.1-51.56l1.43-.1c1.37,18.82,17.79,50.68,17.95,51Z"/><path class="cls-5" d="M178.51,392.37l-1.6-1.08c.18-.26,17.47-25.93,23.34-34.31,6.07-8.67,17.38-11.55,17.85-11.66l.47,1.86c-.11,0-11.09,2.83-16.74,10.9C196,366.45,178.68,392.11,178.51,392.37Z"/><path class="cls-14" d="M226.71,222.2c6.55,12.29,28.22,10.78,35.39.93,4.25-5.59,5.8-14.67,6-18.55"/><path d="M272.1,155.36c-1.1-3.76-4-6.22-6.51-5.49a4.08,4.08,0,0,0-2.59,2.87c-1.25-1.85-2.88-2.88-4.28-2.47a2.8,2.8,0,0,0-1.7,1.63c-.07-.28-.14-.55-.22-.83-1.84-6.28-7-10.3-11.53-9a7.41,7.41,0,0,0-4.66,4.56,2.62,2.62,0,0,0-.12-.54c-.85-2.91-4.48-4.41-8.1-3.35a7.15,7.15,0,0,0-5,4.63,10.37,10.37,0,0,0-9.86-1.89c-5,1.47-8.22,5.92-7.4,10.16a5.78,5.78,0,0,0-3.94-.24,5.9,5.9,0,0,0-4,7.34,6.24,6.24,0,0,0,.56,1.32,6.6,6.6,0,0,0-4.44-.32c-4.1,1.2-6.19,6.41-4.66,11.65a11.56,11.56,0,0,0,3.46,5.52,8,8,0,0,0,5.52,14.91h0a4.45,4.45,0,0,0-1.16,4.13c.73,2.48,4,3.73,7.53,2.92.87,3.24,4.1,12.7,11.78,10.23-.17-5.62-3.84-10.23-4-15.77-.08-2.89-3.48-8-3-10.54.54-2.71,7.83-4.17,9.48-6.27,3.1-3.94,8.58-6.6,18-7.16a43.9,43.9,0,0,0,19.21,3.82,13.27,13.27,0,0,0,4-.54c5.5-1.61,9-6.3,7.74-10.47a6.4,6.4,0,0,0-2-3C272.29,162,273.09,158.72,272.1,155.36Z"/><path d="M278.3,155.19a33.66,33.66,0,0,0-5.18-16.57c-2.15-3.51-5.31-4.11-8.67-1.74a10.83,10.83,0,0,0-2.41,2.37,1.65,1.65,0,0,1-2.47.64,5.76,5.76,0,0,0-7.67,1.74c-1.4,1.83-5.25,6-7.06,5.8-5.37-.45-10.76-.84-16.15-.81s-10.6,1.07-13.62,6.34c-1,1.78-1.61,3.79-2.54,5.62a7.91,7.91,0,0,1-1.87,2.29,25.77,25.77,0,0,1-2.42,1.38,16.26,16.26,0,0,0-6.56,13.83c.45,8.07,2.55,24.69,5.34,32.23a2.41,2.41,0,0,0,1.09,1,43.75,43.75,0,0,0,4.86,2.73c4,1.75,5.58,1.59,7.18,1.59,1.37,0,1.89-1.56,2-3,.21-2.28.3-8.25.53-12.05-2.26-.59-5-2.37-5.61-7.46-.11-6.81,7.49-9.56,11.45-7.15a14.29,14.29,0,0,0,5.94-4.33,48.33,48.33,0,0,0,3.43-5.7c10.36,4.66,20.86,7.79,32,1.85a6,6,0,0,0,1.62-1.38c4.51-3.63,5.81-8.57,6.69-14.1A35.53,35.53,0,0,0,278.3,155.19Z"/><ellipse cx="207.75" cy="204.8" rx="2.44" ry="4.67" transform="translate(-47.6 63.74) rotate(-15.67)"/><path class="cls-15" d="M722.54,162.55s2.79,13.3,0,21.39-11.66,11.91-7.68,33.06-.26,21.65-1.22,27.63c0,0,84.92,8,127.45-13.81l-15.15-26c-8-13.69-11-36.21-11-36.21L782.41,156.1Z"/><path class="cls-16" d="M779.43,201s-.38,38.8,1.19,40.44c2.65,2.75,20,2.22,27.2,9.38s-34,22.22-54.17,21c-13.41-.82-27.06-28.57-17.57-28.61s15.71-2.42,15.49-9.39-.28-13.29-.28-13.29S778,202,779.43,201Z"/><path class="cls-15" d="M742.7,146.86c-1-.31,2.81-5.9,3.78-6.21,15.12-4.83,47.41-11.22,63.83,15.33,12.07,19.52,0,56.22-25.41,67.32-24.16,10.58-20-69.52-20-69.52Z"/><path class="cls-16" d="M761.14,232.4h0c-15.38.81-28.7-10.66-29.79-23.2L729,179.6A29.24,29.24,0,0,1,754.6,148h0c16-1.93,33.41,9.17,35.33,25.21l1.67,23.82C792.89,215.49,780.86,230.89,761.14,232.4Z"/><path class="cls-15" d="M777.37,169.43c-7.31,10.9,4.62,26.38,4.62,26.38l22.53-27.24S781.69,163,777.37,169.43Z"/><polyline class="cls-17" points="747.83 203.03 746.73 208.31 750.21 208.17"/><path class="cls-18" d="M763.29,183.14s-6.67-.27-6.65,1.88c0,0,.07,1.45,5.89,1.59s7.31-.23,7.78-1.61S766.41,183.07,763.29,183.14Z"/><path class="cls-18" d="M736.68,184s5.47-.59,6,1.41c0,0,.32,1.36-4.47,1.79s-6.38,0-6.88-1.1C730.76,184.87,734.07,184.11,736.68,184Z"/><path class="cls-17" d="M751.49,214.52s4.54,1.08,8.24-3.5"/><path class="cls-15" d="M746.48,140.65s-32.85,11.86-26,24.22c5,9.15,38.1,14.83,69.49,8.37,0,0,14.33-11.64-3.41-23.7C786.52,149.54,777,136.08,746.48,140.65Z"/><path class="cls-5" d="M896.21,496.24S908.13,579.9,898,581s-28.6-76.36-28.6-76.36Z"/><path class="cls-5" d="M735.43,502.77s-12,83.65-22.1,82.48-6.24-80.31-6.24-80.31Z"/><path class="cls-6" d="M787.71,254.6s73.36-2.4,106.6,22.26,29.17,218.94,14.41,240.65-227.23,30.27-239.35,0,26.66-91.77,43-111.25S745.73,246.55,787.71,254.6Z"/><path class="cls-16" d="M697.92,267.73s-49.73,41.92-57.35,38-50.18-108.57-52.78-107.18-.2,10.62-.2,10.62-7.52-16.24-8.63-12.68,2.73,14.5,2.73,14.5-6.31-15-7.81-12,1.43,13.16,1.43,13.16-7.23-9.35-8-5.89,3.5,9.93,4.89,15.73,15.6,109.93,42.48,125.86,96.61-34.56,101.79-41.12S697.92,267.73,697.92,267.73Z"/><path class="cls-5" d="M585.63,222.18a5.85,5.85,0,0,1-2-4.8c.33-3.59,4.18-6.24,4.34-6.35l1.17,1.71s-3.21,2.23-3.44,4.84a3.84,3.84,0,0,0,1.36,3.13Z"/><path class="cls-12" d="M577.16,238.81s25.35-11,27.39-11,6.76,9.46,5.64,13.65S585.6,257,580.46,254.8,572.57,240.78,577.16,238.81Z"/><path class="cls-7" d="M748.58,423.9s221.67,10.35,67.71,59.8c-37.87,12.17-134.34,7.3-149.21,0S573.9,442.89,748.58,423.9Z"/><path class="cls-9" d="M575.38,252.59s27.61-18.67,35.85-14.32,27.92,55.38,27.92,55.38c3.59-.39,67.71-62.68,98-50.27,7,2.87-3,53.87-10.45,58.48s-78.84,79-106.92,63.74C609.75,360.15,569.66,255.89,575.38,252.59Z"/><path class="cls-9" d="M743.91,242.4s-7.62,18.14,6.26,19.42c16.33,1.51,36.85-17.15,40-17.31,28-1.43,37.17,8.17,46.21,19.3s-9.77,181.27-19.27,182.74-140.44-35.79-145-36.79,26.23-155.29,29.19-155.66S723.3,237.35,743.91,242.4Z"/><path class="cls-16" d="M667.36,585.11s8.63,23.77-7.45,24.7-39.5,4.91-46.59-.3,34-20.39,35.89-28.65S667.36,585.11,667.36,585.11Z"/><path class="cls-16" d="M590.51,532.47s-4.25,26.35-19.09,20.09S531,541.93,527,534.13s42.34-5.66,47.64-12.26S590.51,532.47,590.51,532.47Z"/><path class="cls-5" d="M819.5,428.72s-.1-46.43-124.41-47.86c-58.74-.67-69.94,185.88-69.94,185.88,12.32,1.36,61.31,14.14,65-.72s28.27-98.18,28.27-98.18C734.58,464.88,816.29,490.71,819.5,428.72Z"/><path class="cls-9" d="M753.31,377s5.54-25.94,16.15-26.42,34.75,6.42,38.76,1.74S784.31,246.82,795.1,245.42c21.69-2.82,34.71,7.37,45.72,24.83,13.93,22.08,20.86,112.14,7.52,127.56C836.65,411.32,753.39,388.77,753.31,377Z"/><path class="cls-5" d="M791.64,354.52c-6.09,0-19.34-2.45-22.36-3l.35-1.87c8.1,1.54,21.75,3.66,23.89,2.83,3.53-1.4,1.72-22.29.4-37.55-1.13-13-2.2-25.32-1-30.42l1.85.44c-1.15,4.8-.09,16.95,1,29.82,2,23.37,2.93,37.69-1.6,39.47A7.74,7.74,0,0,1,791.64,354.52Z"/><path class="cls-5" d="M697.65,293.07l-1.44-1.23c5.28-6.17,9.45-18.25,9.49-18.37l1.8.62C707.32,274.59,703.17,286.63,697.65,293.07Z"/><rect class="cls-19" x="656.38" y="292.2" width="99.96" height="83.22" transform="matrix(0.04, -1, 1, 0.04, 341.2, 1024.49)"/><path class="cls-5" d="M760.19,382.39s-58.36-39.62-97.64-27.19C614.43,370.44,566.47,503,566.47,503c26.07,20.76,37.84,37,48,25.81,42.66-47,92.65-129.39,97.89-122.57S761.89,406.1,760.19,382.39Z"/><path class="cls-16" d="M754.77,353.38s-7.15-10.72-7.17-10.23-2.24,9.81-2.24,9.81-21.08-12.2-22-6.76,1.44,16.3,9.69,21.16,17.26,12.23,20.69,9.4S763.8,362.26,754.77,353.38Z"/><path class="cls-5" d="M561.2,525.78s-3.34,8.43,0,10,26.67,3.09,27.82,3.3-7.23,17.48-10.68,18-50.29-5.36-54.23-18S555.86,526.27,561.2,525.78Z"/><path class="cls-5" d="M635.56,592s3.79,10.82,6.75,10.92,27.32-6.69,27.32-6.69.5,18.09-3.22,19.92-52,9.08-62.07,3.12S635.56,592,635.56,592Z"/><path class="cls-12" d="M794,244.38s-8.42-6-16.23-1.8c-13.77,7.34-26.73,19-26.73,19s-4.61-21.4-7.8-21.86-15.81-2.41-15.55,2.54.34,29.77,7.57,29.54S751,265.29,751,265.29s2.64,9.78,10.25,11.41C773.68,279.35,796.62,249.59,794,244.38Z"/><path class="cls-12" d="M769,354.32s-4.33,29-8.77,28.07a76.66,76.66,0,0,1-10-3.13S756.58,351,758.48,351C762,351,769,354.32,769,354.32Z"/><path class="cls-12" d="M632.38,508.68l-1.43-.21a371.34,371.34,0,0,1,9.8-44.11c8.82-30,19.16-46.77,30.71-49.72,23.55-6,33,6.75,43.87,21.53,7.68,10.4,16.38,22.19,31.57,28.4l-.55,1.34C730.78,459.54,722,447.58,714.17,437c-10.59-14.36-19.73-26.76-42.35-21C645.36,422.78,632.5,507.82,632.38,508.68Z"/><path class="cls-6" d="M742.57,512.91s-11.51-96,19.65-108c14-5.42,107.57-25.37,118.24-10.1s13.75,112.51,0,118.14S742.57,512.91,742.57,512.91Z"/><path class="cls-12" d="M564.67,489.36s57.47,29.28,55.72,38.47c-1.34,7.1-5,16.25-15.95,13.59-13.5-3.25-39.62-24.57-45.2-33.26S564.67,489.36,564.67,489.36Z"/><path class="cls-12" d="M622.53,562.67s65.47-.35,67.64,3.35c3.65,6.23.8,20.6-6.4,20-12.06-1.09-47.58-.36-58.62-1.5C614.88,583.4,622.53,562.67,622.53,562.67Z"/><path class="cls-5" d="M737.66,368.05l-1.77-.77c.7-1.6,5.42-10,5.62-10.36l1.67.95C741.5,360.86,738.18,366.84,737.66,368.05Z"/><path class="cls-5" d="M739.88,361.45c-3.46-2.91-15.25-12.78-15.25-12.78l1.23-1.48L741.11,360Z"/><path class="cls-5" d="M738.17,365.09a51.35,51.35,0,0,1-14.51-10.8l1.41-1.32A50.24,50.24,0,0,0,739,363.34Z"/><path class="cls-6" d="M739.2,206.16a10.35,10.35,0,1,1,10.35-10.35A10.36,10.36,0,0,1,739.2,206.16Zm0-19.1a8.75,8.75,0,1,0,8.75,8.75A8.75,8.75,0,0,0,739.2,187.06Z"/><path class="cls-6" d="M764.35,206.16a10.35,10.35,0,1,1,10.35-10.35A10.36,10.36,0,0,1,764.35,206.16Zm0-19.1a8.75,8.75,0,1,0,8.76,8.75A8.76,8.76,0,0,0,764.35,187.06Z"/><path class="cls-6" d="M755,198.54a24.08,24.08,0,0,0-6.36-.58l-.1-1.59a24.78,24.78,0,0,1,6.86.62Z"/><rect class="cls-6" x="773.48" y="193.6" width="17.62" height="1.6" transform="translate(-19.97 115.94) rotate(-8.37)"/><path class="cls-16" d="M805.79,193a12,12,0,1,1-13.33-10.47A12,12,0,0,1,805.79,193Z"/><path class="cls-17" d="M790.16,198.42s-1-8.63,7.37-8.26"/><ellipse class="cls-5" cx="738.42" cy="196.35" rx="2.47" ry="1.95" transform="translate(450.81 904.23) rotate(-82.78)"/><ellipse class="cls-5" cx="762.42" cy="196.35" rx="2.47" ry="1.95" transform="translate(471.79 928.04) rotate(-82.78)"/><path class="cls-14" d="M781.9,224.27a33.27,33.27,0,0,1-20.76,8.82h0a29.42,29.42,0,0,1-7.83-.64"/><polygon class="cls-9" points="920.46 515.38 920.2 517.39 919.9 519.76 919.53 522.59 918.01 534.42 917.85 535.7 916.26 548.09 916.09 549.4 909.77 598.49 909.6 599.82 906.34 625.14 835.25 625.66 834.22 618.48 834.04 617.18 833.48 613.33 833.3 612.06 830.17 590.28 829.96 588.78 822.96 540.02 822.74 538.48 821.47 529.67 819.53 516.12 920.46 515.38"/><polygon class="cls-11" points="920.46 515.38 920.2 517.39 919.9 519.76 919.53 522.59 917.62 522.73 915.61 522.88 886.12 525.01 884.11 525.15 821.47 529.67 819.53 516.12 920.46 515.38"/><path class="cls-9" d="M929.46,515.9a700.69,700.69,0,0,1-118.92.87L810.46,506l118.92-.87Z"/><path class="cls-20" d="M901.38,378c-3.69,4.48-6.25,21-13.33,23.68-4.88,1.86-7.52-5.19,1.89-14.17a36.89,36.89,0,0,0,9.86-16.86A137.4,137.4,0,0,0,893,349.19c-5.43,5.09-14.14,12.32-16.67,8.92-2.75-3.72,5.32-15.54,9.84-21.6a37.69,37.69,0,0,0-7.15-7.85,22.2,22.2,0,0,0-15-5.23,19.8,19.8,0,0,0-11.36,4.24c4.95,9.62,12.26,25.88,7.25,29.67-4.65,3.51-11.53-9.94-15.85-20-5.9,9.26-9.82,21.92-11.46,34.12a21.66,21.66,0,0,0,6.73,7.18c9.29,6.57,20.36,19.91,14.89,22.94s-11.25-4.82-15.39-11.82a28.21,28.21,0,0,0-7.07-8.4c-.08,2.13-.06,4.21,0,6.22,1.73,38.31,39.15,38,39.15,38S908.27,416.71,901.38,378Zm-47.1,1.11c-3.71,0-9.65-6.89-12.44-10.72s-.6-6.48,2.06-5.76l.12,0C847.75,363.78,859.09,379.14,854.28,379.13Zm32.58-9.42.11,0c2.65-.76,4.85,1,3.62,4.4-1.6,4.45-3.76,6.22-7.09,4.58C881.41,377.62,883.15,370.85,886.86,369.71Z"/><path class="cls-21" d="M866.43,368.68c3.41,16.75,2.47,34.07,1.34,51-1.2,18.09-2.87,36.23-2,54.38a150.78,150.78,0,0,0,4.32,30.56c.21.85,1.53.48,1.31-.37-9.15-35.91-1.23-72.58-1.23-108.93a135.25,135.25,0,0,0-2.39-27c-.17-.86-1.49-.49-1.31.37Z"/><path class="cls-20" d="M850,426c-.33,5.79,7.32,20.62,3.2,27-2.84,4.38-9.13.25-6.83-12.56a36.85,36.85,0,0,0-2-19.42,136.48,136.48,0,0,0-18.19-13.32c-1.38,7.31-4.16,18.29-8.21,17-4.41-1.37-4.86-15.68-4.79-23.24a37.57,37.57,0,0,0-10.4-2.13,22.25,22.25,0,0,0-15.23,4.64,19.8,19.8,0,0,0-6.67,10.13c9.67,4.85,25.16,13.67,23.35,19.68-1.68,5.59-15.17-1.22-24.58-6.79.69,10.95,5,23.49,10.86,34.31a21.64,21.64,0,0,0,9.67,1.83c11.38-.17,28.19,4.08,25.56,9.74s-11.93,2.74-19.4-.47a28.43,28.43,0,0,0-10.67-2.61c1.2,1.77,2.44,3.44,3.69,5,24,29.92,54.05,7.62,54.05,7.62S878.41,453.13,850,426Zm-37.38,28.67c-3,2.18-11.86.13-16.37-1.32s-4.31-4.88-1.73-5.86l.11,0C798.32,446.08,816.53,451.79,812.65,454.62ZM833.4,427.8l.07-.1c1.69-2.17,4.5-2.05,5.52,1.42,1.33,4.54.63,7.25-3,7.88C833.67,437.41,831.08,430.91,833.4,427.8Z"/><path class="cls-21" d="M816.24,439c8.85,8,17.62,16.35,24.79,25.95a132.22,132.22,0,0,1,13.59,23.73c2.74,5.88,5.34,11.82,8,17.72.36.8,1.53.1,1.18-.7-4.39-9.7-8.49-19.59-13.61-28.94a115.07,115.07,0,0,0-16.8-23c-5.13-5.52-10.63-10.7-16.21-15.76-.65-.59-1.61.38-1,1Z"/><path class="cls-20" d="M883,489.06s30.22,22.07,54-8q1.88-2.37,3.66-5a28.37,28.37,0,0,0-10.65,2.7c-7.45,3.26-16.73,6.26-19.4.61s14.11-10,25.49-9.93a21.7,21.7,0,0,0,9.65-1.9c5.78-10.87,10-23.44,10.6-34.4-9.37,5.64-22.81,12.55-24.53,7-1.86-6,13.57-14.94,23.2-19.86a19.75,19.75,0,0,0-6.75-10.07A22.21,22.21,0,0,0,933,405.59a37.22,37.22,0,0,0-10.38,2.21c.13,7.56-.22,21.87-4.62,23.28-4,1.29-6.9-9.67-8.33-17a137.08,137.08,0,0,0-18.09,13.46A36.8,36.8,0,0,0,889.78,447c2.39,12.79-3.86,17-6.74,12.61-4.17-6.33,3.37-21.21,3-27C857.86,460,883,489.06,883,489.06Zm58.54-35.43.11,0c2.58,1,2.82,4.39-1.69,5.88s-13.34,3.6-16.36,1.44C919.72,458.19,937.9,452.34,941.57,453.63Zm-41.39-10.08c-3.65-.61-4.38-3.31-3.08-7.86,1-3.47,3.8-3.62,5.5-1.46l.08.1C905,437.42,902.48,443.94,900.18,443.55Z"/><path class="cls-21" d="M919,444.4c-18,18.36-32.32,39.61-46.12,61.21-.47.74.71,1.42,1.18.68,13.74-21.51,28-42.65,45.91-60.93a.68.68,0,0,0-1-1Z"/><path class="cls-11" d="M929.38,505.11c0,1.1-26.6,2.18-59.44,2.42s-59.47-.46-59.48-1.55,26.61-2.18,59.45-2.42S929.37,504,929.38,505.11Z"/><path class="cls-22" d="M602.94,140.66c.45,14-12,25.89-25.91,25.88s-26-12-26-26.1,12.18-26,26.2-25.89C590.9,114.64,603.49,126.45,602.94,140.66Z"/><path class="cls-19" d="M608.55,147c2.56-2.05,4.89-4.39,7.58-6.28v-.35c-2.69-1.89-5-4.22-7.56-6.27-.65-.52-.5-1-.21-1.66,1.13-2.52,2.18-5.07,3.35-7.57.47-1,.33-1.38-.8-1.63-2.32-.53-4.6-1.33-6.93-1.8a2.59,2.59,0,0,1-2.44-3v-.71h0c0-1.25,0-2.51,0-3.77,0-4.89.52-4.07-4-3.15-1.85.38-3.72.61-5.56,1-1,.21-1.44-.18-1.86-1-1.4-2.77-2.87-5.51-4.37-8.38-2.59,1.93-5.12,3.75-7.58,5.66a1.5,1.5,0,0,1-2.22,0c-2.46-1.91-5-3.73-7.58-5.66-1.5,2.87-3,5.59-4.36,8.38a1.58,1.58,0,0,1-2,1c-2.63-.55-5.28-1-7.91-1.57-.9-.19-1.47-.15-1.42,1,0,.92,0,1.84,0,2.76h0c0,1.26,0,2.52,0,3.77-.41,3.07-.41,3.06-3.47,3.88-2,.53-3.87,1.15-5.85,1.56-1.27.26-1.28.75-.81,1.76,1.14,2.46,2.18,5,3.29,7.44.28.61.5,1.13-.17,1.67-2.57,2-4.89,4.39-7.58,6.28v.35c2.69,1.89,5,4.24,7.58,6.28.67.54.45,1.06.17,1.68-1.11,2.47-2.15,5-3.29,7.43-.47,1-.45,1.49.82,1.76,2.36.52,4.66,1.32,7,1.83,1.51.32,2.55.84,2.29,2.55a7.09,7.09,0,0,0,0,1.06c0,1.25,0,2.51,0,3.76-.15,4-.15,4,3.8,3.26,1.82-.35,3.64-.66,5.44-1.06a1.66,1.66,0,0,1,2.18,1c1.2,2.49,2.56,4.91,3.8,7.39.39.78.7.83,1.38.31,2.24-1.73,4.56-3.36,6.79-5.11a1.4,1.4,0,0,1,2.08,0c2.23,1.74,4.55,3.37,6.79,5.1.69.53,1,.45,1.37-.32,1.24-2.48,2.61-4.89,3.81-7.39a1.66,1.66,0,0,1,2.18-1c2.54.54,5.11.94,7.63,1.54,1.28.3,1.7-.07,1.62-1.31,0-.81,0-1.62,0-2.43h0c0-1.25,0-2.51,0-3.76.4-3.07.4-3.06,3.46-3.88,2-.53,3.88-1.15,5.85-1.56,1.27-.26,1.29-.74.82-1.76-1.15-2.46-2.19-5-3.29-7.44C608.1,148.06,607.88,147.54,608.55,147ZM553,115.9a4.61,4.61,0,0,1-.22,1.41A4.61,4.61,0,0,0,553,115.9Zm48.18,49.29a4.91,4.91,0,0,1,.09-.94A4.91,4.91,0,0,0,601.15,165.19ZM577,166.54c-14,0-26-12-26-26.1s12.18-26,26.2-25.89c13.64.09,26.23,11.9,25.68,26.11C603.39,154.65,590.91,166.55,577,166.54Z"/><path class="cls-14" d="M598.13,125.43a24.06,24.06,0,0,1,4.81,15.23c.45,14-12,25.89-25.91,25.88a26,26,0,0,1-18.91-8.48"/><path class="cls-20" d="M275.07,52.61c-.2,4.69-.8,8.14-3.39,10.93-.91,1-.52,2.11-.38,3.24.35,2.74.71,5.49-.52,8.15A9.87,9.87,0,0,1,262.24,81c-2.41.24-4.77.66-7.18,0-1-.25-1.49.57-2,1.32a13.4,13.4,0,0,1-4.19,4.39c-3.14,2-11.68,1.8-14.41-.71a29.57,29.57,0,0,1-2.09-2.1c-.84-1-1.51-.94-2.49-.07-5.91,5.27-15.91,4-20.21-2.64a9.79,9.79,0,0,1-1.45-5.7c0-1.71-.31-2.81-2.44-3.25-5.08-1-10.23-7.38-10.85-12.57a33.56,33.56,0,0,1,.39-8.84c.88-6.27,5.89-8.59,10.33-9.58a2.19,2.19,0,0,0,1.94-1.7,18.31,18.31,0,0,1,21.51-11.68,12,12,0,0,1,3.77,1.89c.92.59,1.44.74,2.39,0C241,25.51,247,25.28,253,29.15a14.16,14.16,0,0,1,6,8.43,2.83,2.83,0,0,0,2.37,2.31c1.93.47,4,.39,5.79,1.29A14.09,14.09,0,0,1,275.07,52.61Z"/><path class="cls-20" d="M224.48,116.22a41.67,41.67,0,0,1,2.39,7.44,4,4,0,0,1-2.07,4.48c-2,1.07-3.39.67-5-1.26-1.35-1.63-1-3.31,0-4.88,1-1.4,2.06-2.7,3.11-4C223.35,117.47,223.79,117,224.48,116.22Z"/><path class="cls-20" d="M229.26,102.86c-.1-2.23,1.52-3.59,2.72-5.12.8-1,1.61-2.87,2.7-2.66s1.16,2.2,1.52,3.47a28.19,28.19,0,0,1,1,3.91,4.12,4.12,0,0,1-3.53,4.34A4,4,0,0,1,229.26,102.86Z"/><path class="cls-20" d="M252.32,117.39a3.48,3.48,0,0,1-2.19,3.93,3.78,3.78,0,0,1-4.5-.78A3.63,3.63,0,0,1,245,116a60.67,60.67,0,0,1,4.07-5.68c.47-.63,1.12-.83,1.4.14C251.12,112.84,252.52,115,252.32,117.39Z"/><path class="cls-20" d="M209.65,92a25,25,0,0,1,2.11,6.42,3.24,3.24,0,0,1-1.66,3.8,3.44,3.44,0,0,1-4.65-4.78A34.76,34.76,0,0,1,209.65,92Z"/><path class="cls-20" d="M261.2,89.12a27.08,27.08,0,0,1,1.85,6,3.14,3.14,0,1,1-5.84-1A25.25,25.25,0,0,1,261.2,89.12Z"/><path class="cls-17" d="M271.68,63.54c-.91,1-.52,2.11-.38,3.24.35,2.74.71,5.49-.52,8.15A9.87,9.87,0,0,1,262.24,81c-2.41.24-4.77.66-7.18,0-1-.25-1.49.57-2,1.32a13.4,13.4,0,0,1-4.19,4.39c-3.14,2-11.68,1.8-14.41-.71a29.57,29.57,0,0,1-2.09-2.1c-.84-1-1.51-.94-2.49-.07a13.59,13.59,0,0,1-12,2.91"/><path class="cls-17" d="M237.15,102.46a4.12,4.12,0,0,1-3.53,4.34"/><path class="cls-17" d="M263,94.7c.47,2.84-1.57,4.19-3.53,4.34"/><path class="cls-17" d="M252.28,116.51c.26,2-1.18,4.8-3.14,4.95"/><path class="cls-17" d="M226.87,123.66a4,4,0,0,1-2.07,4.48"/><path class="cls-17" d="M211.76,98.39a3.24,3.24,0,0,1-1.66,3.8"/></g></g></svg>