<svg xmlns="http://www.w3.org/2000/svg" viewBox="0 0 248.23 249.79"><defs><style>.cls-1{fill:#a0cebf;}.cls-2{fill:#e6d0c5;}.cls-3{fill:#f8f8f8;}.cls-4{fill:#e7e7e7;}.cls-5{fill:#bc8282;}.cls-6{fill:#d39997;}.cls-7{fill:#f9be7b;}.cls-8{fill:#f4a95c;}.cls-9{fill:none;stroke:#1b172c;stroke-linejoin:round;stroke-width:2px;}</style></defs><title>Asset 2</title><g id="Layer_2" data-name="Layer 2"><g id="Layer_1-2" data-name="Layer 1"><path class="cls-1" d="M127.51.05C54.55-1.84,1.71,55.75,0,120.68c-1.87,72.92,56.08,128.2,123.43,128.11A123.34,123.34,0,0,0,247.2,128.1C248.91,54.66,192.08,1.72,127.51.05Z"/><polygon class="cls-2" points="176.66 179.7 70.45 179.7 70.45 95.7 123.4 50.88 176.66 95.7 176.66 179.7"/><polygon class="cls-3" points="123.38 50.88 64.18 102.79 64.18 179.7 123.56 179.7 123.56 51.01 123.38 50.88"/><polygon class="cls-4" points="182.93 104.56 123.56 51.01 123.56 179.7 182.93 179.7 182.93 104.56"/><polygon class="cls-3" points="79.29 56.2 79.29 92.97 89.24 76.39 89.24 56.2 79.29 56.2"/><rect class="cls-4" x="89.24" y="56.2" width="9.95" height="20.19"/><rect class="cls-5" x="89.24" y="46.93" width="13.44" height="9.5"/><rect class="cls-6" x="75.8" y="46.93" width="13.44" height="9.5"/><polygon class="cls-6" points="48.28 111.49 64.19 111.49 123.56 55.54 123.56 40.4 48.28 111.49"/><polygon class="cls-5" points="123.56 40.4 123.56 55.54 182.93 111.49 198.95 111.49 123.56 40.4"/><rect class="cls-7" x="55.15" y="179.7" width="136.94" height="14.69"/><rect class="cls-8" x="55.15" y="187.05" width="136.94" height="7.35"/><path class="cls-9" d="M245.18,102.4A123.85,123.85,0,0,1,40.58,217"/></g></g></svg>