<svg xmlns="http://www.w3.org/2000/svg" viewBox="0 0 506 711.83"><defs><style>.cls-1,.cls-10{fill:#60858a;}.cls-1,.cls-5{opacity:0.2;}.cls-2{opacity:0.3;}.cls-3{fill:#f8f8f8;}.cls-4{fill:#fff;}.cls-6{fill:#b55428;}.cls-7{fill:#f7d1cd;}.cls-8{fill:#241833;}.cls-9{fill:#53777a;}.cls-11{fill:#c3dbdd;}.cls-12{fill:#6b3b15;}.cls-13{fill:#f0c6ad;}.cls-14{fill:#1b172c;}.cls-15{fill:#5a2e11;}.cls-16{fill:#fffadd;}.cls-17{fill:#f9be7b;}.cls-18{fill:#eb703d;}</style></defs><title>Asset 10</title><g id="Layer_2" data-name="Layer 2"><g id="Layer_1-2" data-name="Layer 1"><path class="cls-1" d="M505.31,331.14s5.11,138.64-94,156.57c-84.63,15.31-142.41-108-197.7-76.87S106.91,462.7,61.44,360.65C8.17,241.07-1,128.39,88.56,61.6s143.32-2.86,215.71-50.71S517,73.49,505.31,331.14Z"/><path class="cls-1" d="M57.35,235.9S108.92,111.53,203.22,146c80.52,29.45,84.23,155.54,145.41,156.18S460.48,322.27,459.15,435c-1.55,132-39,235.67-144.73,248.93s-127-70.13-210-64.79S-57.1,456.27,57.35,235.9Z"/><g class="cls-2"><path class="cls-3" d="M8.68,434.4A21.7,21.7,0,0,0,30.32,456H171.61a21.69,21.69,0,0,0,21.63-21.63v-9.47H8.68Z"/></g><path class="cls-4" d="M191.89,426.28v8.12a20.31,20.31,0,0,1-20.28,20.28H30.32A20.31,20.31,0,0,1,10,434.4v-8.12H191.89m1.35-1.35H8.68v9.47A21.7,21.7,0,0,0,30.32,456H171.61a21.69,21.69,0,0,0,21.63-21.63v-9.47Z"/><g class="cls-5"><rect class="cls-3" x="8.68" y="124.77" width="184.56" height="331.27" rx="21.63"/></g><g class="cls-2"><path class="cls-3" d="M193.24,146.4a21.69,21.69,0,0,0-21.63-21.63H30.32A21.7,21.7,0,0,0,8.68,146.4v9.46H193.24Z"/></g><path class="cls-4" d="M171.61,126.12a20.31,20.31,0,0,1,20.28,20.28v288a20.31,20.31,0,0,1-20.28,20.28H30.32A20.31,20.31,0,0,1,10,434.4v-288a20.31,20.31,0,0,1,20.29-20.28H171.61m0-1.35H30.32A21.7,21.7,0,0,0,8.68,146.4v288A21.7,21.7,0,0,0,30.32,456H171.61a21.69,21.69,0,0,0,21.63-21.63v-288a21.69,21.69,0,0,0-21.63-21.63Z"/><path class="cls-4" d="M171.61,126.12a20.31,20.31,0,0,1,20.28,20.28v8.11H10V146.4a20.31,20.31,0,0,1,20.29-20.28H171.61m0-1.35H30.32A21.7,21.7,0,0,0,8.68,146.4v9.46H193.24V146.4a21.69,21.69,0,0,0-21.63-21.63Z"/><path class="cls-6" d="M60.74,188.31s0-17,10.61-30.76c3.18-29.71,2.12-49.87,21.22-55.17,19.1-13.8,37.13-8.49,46.68,0s7.43,28.64,4.24,41.37-1.06,17,3.19,26.53a37.4,37.4,0,0,1,3.18,18Z"/><path class="cls-7" d="M150,258.62c6.26,6.89,14.69,16.78,27.72,10.82,23.66-10.82-17.53-100-17.53-100s5.35-36.51-15.68-43.33c-3.23,1.67-19.19,5.23-5,25.61,2.28,16.76,3.91,26.79,6.44,32l2.54,5.19s-1.77-11.38-30-8.68S135.75,243,150,258.62Z"/><path class="cls-8" d="M109.59,238.5c12.46,3.46,23.47,30.38,25.71,44.93,6.55,42.47,11.93,142.15,11.93,142.15-11,0-43.15.73-56.32,0C91.6,414.4,80.57,357,80.82,338.36,81.38,297,63.46,225.71,109.59,238.5Z"/><path class="cls-9" d="M140.66,247.47s14.05-13.18,17.43-21.3c-6.08-25-4.06-43.94-22.31-46.64-10.14,0-7.44,42.59-7.44,42.59L133.78,239l1.32,4.72,4.74,4.73Z"/><path class="cls-8" d="M73.81,238.5C61.34,242,51.75,269.17,48.1,283.43,36.79,327.57,31.67,425.58,31.67,425.58c11,0,47.54.73,60.81,0-.68-11.18,10.34-68.54,10.09-87.22C102,297,119.93,225.71,73.81,238.5Z"/><path class="cls-7" d="M96.66,127.4s-7.74,41.65-14.21,43c-14.51,3.1-14.32,1.13-33.2,48.31S26.52,325,75.61,328.26c14.39.95,99.84-18.8,50.73-56.41-34.21-26.21-1-74.81-3.6-88.5s-22.11,9.7-5-32.9Z"/><path class="cls-7" d="M97.31,119.26s25.23-8,33.38,1.51,5.3,41.19-12,43.9C91.67,168.89,83.35,130.8,97.31,119.26Z"/><path class="cls-10" d="M84.38,168.93s1.76,20.54,17.6,17.36c9.7-2,7.43-10.82,8.79-12.85,4.75-.12,20.23,4.46,25.31,6,2.24.67,3.26,8.05,3.38,16.81.14,11.12,2.11,27.77-1,32-7.43,10.14,10.94,79.73,2.71,91.94s-94.81,14.38-101.41,14.2-8.78-24.14-2-75,1.16-78.36,10.82-85.86S77.64,168.71,84.38,168.93Z"/><path class="cls-7" d="M37.93,186.29s-5.77,46.18-4.33,78.89c4.33,31.76,12,58.22,12.51,66.39S44.19,359.48,50,360s17.55-2.16,20.92-6c.48-1.45-.2-2.62-.68-4.06,1.45,0,4-.69,2-4.06s-4.83-7.28-6.76-16.9-6.76-56.54-6.76-67.6,5.41-66.93,5.41-66.93Z"/><path class="cls-9" d="M66.82,226.17s-23.29,4.25-34.48,2S29,191.69,36.66,182.26c9.78-12,20.74-15.65,28.76-5.31S70.05,221.39,66.82,226.17Z"/><path class="cls-8" d="M122.67,147.8a8.1,8.1,0,0,1-3.33-.91l.72-1.37c.61.31,2.55,1.09,3.48.53.28-.61-1-4.36-2.71-8l1.39-.68c1.94,4,3.88,8.93,2.12,10A3.27,3.27,0,0,1,122.67,147.8Z"/><path class="cls-8" d="M68.18,209.88c0-.18,2.72-18.24-4-33.15l1.42-.64c6.94,15.34,4.17,33.84,4.14,34Z"/><path class="cls-8" d="M112.75,153.82a8.5,8.5,0,0,1,5.88-.29,5.94,5.94,0,0,1,3.32,3.32l1-3a7.89,7.89,0,0,0-10.76.37Z"/><rect class="cls-8" x="66.99" y="337.98" width="1.01" height="10.3" transform="translate(-129.71 54.33) rotate(-23.2)"/><path class="cls-11" d="M88.26,425.76l-1-.31c8-24.62,6.08-50.92,6.06-51.18l1-.08C94.39,374.45,96.31,400.94,88.26,425.76Z"/><ellipse class="cls-8" cx="113.19" cy="135.09" rx="1.67" ry="1.32" transform="matrix(0.02, -1, 1, 0.02, -24.52, 245.08)"/><ellipse class="cls-8" cx="129.01" cy="133.33" rx="1.67" ry="1.32" transform="translate(-7.31 259.17) rotate(-88.65)"/><path class="cls-8" d="M156.15,142.56l-.56-1.38c-1.24.51-13.89,6.66-14.17,6.8l.69,1.31C144.45,148.06,155.21,142.94,156.15,142.56Z"/><path class="cls-8" d="M146.29,146.15l-9.51-12-1.16.92,9.51,12Z"/><path class="cls-8" d="M153.86,142.89a39.59,39.59,0,0,0-8-11.4l-1,1.06a38.9,38.9,0,0,1,7.68,10.92Z"/><path class="cls-8" d="M149.8,144.24a39.35,39.35,0,0,0-8-11.4l-1,1.06a38.41,38.41,0,0,1,7.68,10.92Z"/><rect class="cls-8" x="157.08" y="195.49" width="1.01" height="54.85" transform="translate(-39.65 34.17) rotate(-11)"/><path class="cls-6" d="M135.1,128.82s-12.76-5.35-13.52-12.17c-6.82,3.79-14.13,2.48-17.92,2.48,0,8.34-17.91,47.55-17.91,47.55l2.75-19.5L87,122.92l13.65-17.43,17.43-3,14.4,12.88Z"/><circle class="cls-7" cx="96.23" cy="133.89" r="5.75"/><path class="cls-8" d="M138,262.74c0-.12-1.36-11.63-1.77-21.61s1.75-13.72,1.84-13.87l.87.53-.44-.27.44.27s-2.09,3.55-1.69,13.3c.4,9.94,1.74,21.42,1.76,21.53Z"/><path class="cls-3" d="M274.35,77.12l-3.08-55.46A13.11,13.11,0,0,0,257.49,9.34L180.7,13.61a13.11,13.11,0,0,0-12.32,13.77l3,53.12-18,16.55,34.08-2h0L262,90.89A13.1,13.1,0,0,0,274.35,77.12Z"/><path d="M218.53,34.93c-2.65-3.35-6.55-4.86-10.56-6-3.44-1-7.58-2.11-11-.61-6.61,2.87-4,13.16,3.31,12.11a6.56,6.56,0,0,0,4-2.29c2.09-2.33,3.3-4.58,6.42-5.76,5.77-2.17,12.26,0,17.8,1.93s11.59,6.74,6.1,12.7c-4,4.33-10.81,6.26-16.48,6.77a35.93,35.93,0,0,1-17.32-3c-3.43-1.42-6.77-1.65-9.43,1.31-5,5.55-1.79,14.63,4.29,17.85,6.82,3.62,15.62-1.28,17.06-8.65,1-5.28-2.74-10.37-1.43-15.56,2-7.92,15-4,16.68,2.35,2.28,8.7-11.28,7.24-16.15,6.32-5.51-1-11-3.28-15.05-7.2-2.25-2.14-4.86-5.18-4.58-8.43.32-3.69,4.49-3.93,7.5-3.84A107.73,107.73,0,0,1,221,38l.27-2C211.93,35,201.68,36,194.76,43c-5.42,5.46-7.59,13.8-3.31,20.6,4.7,7.46,13.31,7.91,20.18,3.16a59.17,59.17,0,0,0,10.75-10.23c1.49-1.72,2.92-3.51,4.28-5.34,1.66-2.23,3-5.42,4.91-7.35,1.64-1.65,3.92-1.87,5.49-.22a18,18,0,0,1,2.47,3.68,58,58,0,0,1,7.37,24.93c.1,1.61.45,3.4-1.5,3.67a8.06,8.06,0,0,1-3.09-.75,20.88,20.88,0,0,1-7.4-4.73A39.08,39.08,0,0,1,226.62,58c-2.32-5.1-4.09-10.43-6.57-15.46-1.34-2.72-3.48-7.28-7.27-6.59-3.41.62-5.18,5.81-6.31,8.53a93.6,93.6,0,0,0-4.53,15.41c-1.57,6.91-1.74,18.57,8.59,17.3,4.75-.59,9-4,12.45-7.07a45.92,45.92,0,0,0,9.84-12.9,1,1,0,0,0-.87-1.51L220.24,55l-5.85-.36c-1.85-.11-7,.42-5.07-3.09,1.43-2.65,6.19-4.71,8.85-5.85a49.51,49.51,0,0,1,10-2.94c3.43-.67,6.9-1.09,10.37-1.44,1.14-.12,2.75-.61,3.87-.28,3.78,1.11,1.14,5.72.38,7.86-2.6,7.24-4.93,14.65-7.86,21.76a23.49,23.49,0,0,1-4.81,7.91,9.09,9.09,0,0,1-4.39,2.59c-4.06.78-5.43-3.07-5.61-6.2-.19-3.4.9-6.78,2-10,1.31-3.94,2.66-7.87,4-11.8,2.58-7.67,5.21-15.31,7.75-23,1.36-4.11.39-7.12-4.42-7.33-3.18-.13-6.57,1-9.59,1.86a73.64,73.64,0,0,0-10.15,3.77A74.65,74.65,0,0,0,190.9,40.82c-1,.86.46,2.28,1.42,1.42a72.15,72.15,0,0,1,23.24-14,64.29,64.29,0,0,1,10.71-3,12.44,12.44,0,0,1,3.1-.34c1.87.14,2.25.17,2.61,2,.56,2.86-1.3,6.2-2.22,9q-4.62,13.67-9.23,27.33c-1.84,5.48-4.73,13.91.25,18.71C225,86,231.2,81,233.69,77.3c4.57-6.67,6.55-15.45,9.25-23,1.35-3.77,7.35-14.68-.55-15.34-3-.26-6.45.52-9.47.93a66.75,66.75,0,0,0-12.49,2.72c-3.57,1.21-16.37,6.26-13.84,12,1.17,2.63,6.24,1.92,8.45,2l16.91,1-.87-1.51a44.55,44.55,0,0,1-8,11c-3.47,3.47-8.52,8-13.73,8.06-11.37.18-4.66-19.19-3-24.68a52.09,52.09,0,0,1,2.87-7.51,30.33,30.33,0,0,1,1.7-3.12c1.48-2.27,3.91-2,5.43.12,2.87,4,4.42,9.16,6.26,13.71C225.73,61.3,229.27,69,236,74c2.91,2.17,12.69,7.56,13,.6.43-8.44-2.47-17.68-6.12-25.18-2.17-4.45-7.74-14-12.83-6.92C224.28,50.56,219,59.23,210.61,65c-5.08,3.52-11.35,4.36-15.89-.46A13.28,13.28,0,0,1,192,50.8c4.36-11.84,18.24-14,29.22-12.72,1.13.13,1.35-1.72.26-2a126.64,126.64,0,0,0-18.25-3c-3.67-.32-8.58-.92-11.58,1.82-6.56,6,5.12,15.57,9.94,18.06a37,37,0,0,0,12.81,3.76c4,.46,9.3.94,12.8-1.44,3.11-2.13,3.69-6.15,2.09-9.41-1.93-3.92-6.64-6-10.79-6.56-3.87-.49-7.59,1-8.9,4.88-1.84,5.49,1.94,10.68,1.2,16.14-.89,6.46-8.69,10.94-14.53,7.58-4.83-2.79-8.38-12.46-1.93-15.66,3.13-1.56,6.19.66,9.17,1.71a34.13,34.13,0,0,0,7.34,1.68,35.21,35.21,0,0,0,16.24-1.87c6.7-2.46,16.74-10.21,9.08-17.55-3.67-3.51-9.86-5.07-14.64-6.1-5-1.09-10.73-1.09-15,2.24-2.41,1.9-3.87,6.15-7.35,6.09a4.39,4.39,0,0,1-4.1-5.29c.54-2.49,3-3.47,5.27-3.55,5.52-.21,13.23,2.3,16.7,6.68.8,1,2.22-.42,1.42-1.42Z"/><g class="cls-5"><rect class="cls-3" x="277.34" y="380.57" width="184.56" height="331.27" rx="21.63"/></g><g class="cls-2"><path class="cls-3" d="M461.91,402.2a21.7,21.7,0,0,0-21.64-21.63H299a21.7,21.7,0,0,0-21.64,21.63v9.47H461.91Z"/></g><path class="cls-4" d="M440.27,381.92a20.31,20.31,0,0,1,20.28,20.28v288a20.31,20.31,0,0,1-20.28,20.28H299A20.3,20.3,0,0,1,278.7,690.2v-288A20.3,20.3,0,0,1,299,381.92H440.27m0-1.35H299a21.7,21.7,0,0,0-21.64,21.63v288A21.7,21.7,0,0,0,299,711.83H440.27a21.7,21.7,0,0,0,21.64-21.63v-288a21.7,21.7,0,0,0-21.64-21.63Z"/><path class="cls-4" d="M440.27,381.92a20.31,20.31,0,0,1,20.28,20.28v8.11H278.7V402.2A20.3,20.3,0,0,1,299,381.92H440.27m0-1.35H299a21.7,21.7,0,0,0-21.64,21.63v9.47H461.91V402.2a21.7,21.7,0,0,0-21.64-21.63Z"/><path class="cls-8" d="M352,508.49c-11.53,3.2-21.69,28.08-23.77,41.53-6.05,39.25-11,131.39-11,131.39,10.14,0,39.89.68,52.06,0-.64-10.34,9.56-63.35,9.32-80.62C378.1,562.59,394.66,496.67,352,508.49Z"/><path class="cls-8" d="M395.91,508.49c11.53,3.2,20.39,28.35,23.77,41.53,10.45,40.8,15.18,131.39,15.18,131.39-10.14,0-43.94.68-56.21,0,.64-10.34-9.56-63.35-9.32-80.62C369.84,562.59,353.28,496.67,395.91,508.49Z"/><path class="cls-12" d="M331,363.18s2.8,8.75,1.48,14.39-7,8.81-2.87,22.76,1.32,14.58,1.09,18.67c0,0,57.66-.51,84.76-18.12l-12-16.46c-6.3-8.65-9.88-23.59-9.88-23.59l-22.76-6.13Z"/><path class="cls-13" d="M371.89,385.09s2.44,26.13,3.6,27.11c2,1.67,13.6.12,18.94,4.43s-21.34,17.3-35,17.87c-9.08.38-20.18-17.34-13.8-18s10.4-2.71,9.77-7.38-1.11-8.92-1.11-8.92S371,385.87,371.89,385.09Z"/><path class="cls-12" d="M343.45,351.23c-.68-.14,1.48-4.16,2.11-4.43,9.83-4.3,31.1-10.83,44,5.89,9.47,12.29,3.86,37.81-12.43,47-15.52,8.79-18.3-45.36-18.3-45.36Z"/><path class="cls-13" d="M361.77,407.48h0c-10.29,1.62-20-5.18-21.64-13.54l-3.66-19.74a19.77,19.77,0,0,1,15.06-23h0c10.65-2.41,23.1,3.85,25.51,14.5l2.77,15.91C382,393.92,374.92,405.1,361.77,407.48Z"/><path class="cls-12" d="M368.32,364c-4.16,7.84,4.93,17.42,4.93,17.42l13.27-19.88S370.78,359.37,368.32,364Z"/><path class="cls-14" d="M350.41,392.62a.34.34,0,0,1-.34-.38l.37-3.62.68.07-.33,3.19,1.9-.27.1.67-2.34.33Z"/><path class="cls-15" d="M359.8,374.21s-4.5.28-4.34,1.72c0,0,.15,1,4.07.66s4.9-.66,5.12-1.62S361.9,373.94,359.8,374.21Z"/><path class="cls-15" d="M342,376.63s3.64-.77,4.13.54c0,0,.31.89-2.88,1.51s-4.29.43-4.7-.27S340.22,376.88,342,376.63Z"/><path class="cls-14" d="M355.33,398.27a7.79,7.79,0,0,0,4.15-5.2l-.14.13a5.79,5.79,0,0,1-5.3,2.93Z"/><path class="cls-12" d="M345.56,346.8S324.29,357,329.72,364.88c4,5.81,26.65,7.35,47.32.82,0,0,8.83-8.82-3.94-15.7C373.1,350,365.77,341.61,345.56,346.8Z"/><path class="cls-13" d="M252.18,438.64c-13.37-5.34-26.25-8-26.53-7.24-.63,1.63,4.16,4.05,4.16,4.05s-9.9-2.85-9-1.05,7,4.25,7,4.25-8.85-2.9-8.34-1.14,5.91,4.3,5.91,4.3-7-.41-6,1.23,5.55,2.22,8.5,3.79c1.07.57,8.18,5.32,17.67,10.85C262.07,467.27,269.07,445.39,252.18,438.64Z"/><path class="cls-8" d="M242.81,444.54a4,4,0,0,1-3.39-.91c-1.8-1.65-1.64-4.81-1.64-4.94l1.41.08s-.13,2.63,1.18,3.83a2.62,2.62,0,0,0,2.24.55Z"/><path class="cls-16" d="M240,452.82s13.06-13.36,14.34-13.89,6.65,4.2,7,7.1S250,462,246.19,462,237.67,455.23,240,452.82Z"/><path class="cls-17" d="M242.44,461.9s12.51-18.74,18.78-18.12,31.63,27.53,31.63,27.53c2.14-1.16,26.36-56.53,48.5-56.5,5.12,0,11.86,34.49,8.4,39.27s-29.17,69.59-50.64,67.21C291.43,520.44,239.71,465.43,242.44,461.9Z"/><path class="cls-17" d="M350.87,415.4S347,428.13,356.43,428c11.08-.11,23.59-14.09,25.7-14.41,18.7-2.9,25.57,2.92,32.42,9.78S426.28,549.28,420,550.93s-87.4,4.27-91.27.68c-5.26-4.9-7.67-124.94-5.7-125.39S336.66,413.43,350.87,415.4Z"/><path class="cls-8" d="M326.71,497.28l-1.13-.6c2.58-4.85,3.55-13.43,3.56-13.52l1.27.14C330.37,483.66,329.4,492.22,326.71,497.28Z"/><path class="cls-18" d="M297.62,443.44s54.09-1.35,54.09,0,16.9,75,14.2,75-52.06,4.06-53.41.68S294.92,443.44,297.62,443.44Z"/><path class="cls-17" d="M366.51,505.25s1.93-17.83,9-18.88,23.82,1.91,26.19-1.51-23.38-69.28-16.22-71c14.39-3.4,23.85,2.56,32.46,13.53,10.9,13.89,21.79,74,13.89,85.26C424.93,522.58,367.38,513.18,366.51,505.25Z"/><path class="cls-13" d="M365.86,489.28s-5.56-6.71-5.54-6.38-.82,6.75-.82,6.75-15-6.74-15.28-3,2.1,10.86,8,13.56,12.46,7,14.57,4.89S372.55,494.63,365.86,489.28Z"/><path class="cls-16" d="M384.69,413.27s-6.08-3.43-11-.09A106.26,106.26,0,0,0,357,427.83s-4.58-14.07-6.76-14.16-10.79-.53-10.28,2.79,2.29,20,7.13,19.34,10.16-5.5,10.16-5.5,2.46,6.4,7.69,7C373.45,438.19,386.82,416.59,384.69,413.27Z"/><path class="cls-16" d="M375.46,488.93s-.9,19.82-3.95,19.49a52.71,52.71,0,0,1-6.95-1.41s2.34-19.49,3.62-19.62C370.58,487.15,375.46,488.93,375.46,488.93Z"/><path class="cls-8" d="M355.36,500.33l-1.24-.4c.36-1.12,2.95-7.09,3.06-7.34l1.19.51C357.45,495.23,355.63,499.48,355.36,500.33Z"/><path class="cls-8" d="M356.4,495.74l-11.14-7.54.73-1.08,11.14,7.55Z"/><path class="cls-8" d="M355.5,498.31a34.8,34.8,0,0,1-10.5-6.26l.86-1a34.24,34.24,0,0,0,10.06,6Z"/><path class="cls-10" d="M345.19,391.36a7,7,0,1,1,6.25-7.68A7,7,0,0,1,345.19,391.36Zm-1.32-12.85a5.92,5.92,0,1,0,6.49,5.28A5.93,5.93,0,0,0,343.87,378.51Z"/><path class="cls-10" d="M362.11,389.61a7,7,0,1,1,6.25-7.67A7,7,0,0,1,362.11,389.61Zm-1.32-12.84a5.92,5.92,0,1,0,6.49,5.28A5.91,5.91,0,0,0,360.79,376.77Z"/><path class="cls-10" d="M355.32,385.14a16.09,16.09,0,0,0-4.32,0l-.17-1.06a17,17,0,0,1,4.65-.05Z"/><rect class="cls-10" x="367.4" y="379.92" width="11.91" height="1.08" transform="translate(-82.15 103.58) rotate(-14.25)"/><path class="cls-13" d="M389.07,377.86a8.11,8.11,0,1,1-9.7-6.12A8.11,8.11,0,0,1,389.07,377.86Z"/><path class="cls-14" d="M378.6,382.7a6.24,6.24,0,0,1,.82-4.68,5,5,0,0,1,3.88-1.8l0,.67a4.3,4.3,0,0,0-3.37,1.53,5.64,5.64,0,0,0-.71,4.13Z"/><ellipse class="cls-8" cx="343.99" cy="384.81" rx="1.67" ry="1.32" transform="translate(-48.79 719.67) rotate(-88.65)"/><ellipse class="cls-8" cx="361.16" cy="383.04" rx="1.67" ry="1.32" transform="translate(-30.25 735.11) rotate(-88.65)"/><path class="cls-16" d="M384.33,681.45c-1.27-17.23-1.95-21.86-9.45-54.69-7.42-32.42-7-48.45-7-48.61l1,0c0,.15-.42,16.08,7,48.35,7.52,32.89,8.2,37.54,9.47,54.83Z"/><path class="cls-8" d="M414.63,517.45c-1,0-23.65-.58-34.56-4.6l.35-1c10.75,4,34,4.53,34.23,4.54Z"/><path class="cls-8" d="M390.78,460.46c-1.64-8.57-3.19-16.67-2.75-20l-1.27-.17c-.47,3.52,1.1,11.71,2.76,20.39,2,10.17,4.61,24.1,2.33,25.28a9.43,9.43,0,0,1-3,.35v1.28c.68,0,1.3-.06,1.84-.11a5.44,5.44,0,0,0,1.71-.38C395.36,485.61,393.76,476,390.78,460.46Z"/><g class="cls-2"><path class="cls-3" d="M277.34,690.2A21.7,21.7,0,0,0,299,711.83H440.27a21.7,21.7,0,0,0,21.64-21.63v-9.47H277.34Z"/></g><path class="cls-4" d="M460.55,682.09v8.11a20.31,20.31,0,0,1-20.28,20.28H299A20.3,20.3,0,0,1,278.7,690.2v-8.11H460.55m1.36-1.36H277.34v9.47A21.7,21.7,0,0,0,299,711.83H440.27a21.7,21.7,0,0,0,21.64-21.63v-9.47Z"/><path class="cls-3" d="M466.94,243.78l-72.56-5.18c-5.71,0-13,9-13,14.68l-4.32,51-1.73,27.64,13.31-10.4,78.26-7.74a10.39,10.39,0,0,0,10.36-10.37V254.15A10.39,10.39,0,0,0,466.94,243.78Z"/><path d="M426.75,305.92a30.75,30.75,0,0,1-15.91-4.38,33.08,33.08,0,0,1-4.11-2.93,23.7,23.7,0,0,1-5.64-6.43,22.25,22.25,0,0,1-2-4.89c-2.57-9.07-.5-19.08,5.26-25.5a16.88,16.88,0,0,1,3.28-2.89,17.26,17.26,0,0,1,9.55-2.59h.12A41.69,41.69,0,0,1,427,257.8c3.11.77,6.38,1.69,9.09,3.69a26.81,26.81,0,0,1,5.35,5.93,29.86,29.86,0,0,1,4.63,8,17.32,17.32,0,0,1-4,16.84,22.51,22.51,0,0,1-16,6.85,18.8,18.8,0,0,1-4.09-.29,24,24,0,0,1-9.29-4.55c-2.27-1.67-4.74-3.76-5.86-6.67a17.77,17.77,0,0,1-.79-6.34c0-3.52,0-8.34,2.57-12a13.21,13.21,0,0,1,9.65-5.12,27.19,27.19,0,0,1,10.62,1.53,11.54,11.54,0,0,1,4,2,10.57,10.57,0,0,1,2.41,3.24c2,3.76,2.83,7.27,2.46,10.44-.48,4.11-3.14,7.55-6.63,8.55a13.4,13.4,0,0,1-3.07.42c-5,.2-8.49-1-10.47-3.59s-2-5.76-1.79-8.63a7.77,7.77,0,0,1,.92-3.7,7.35,7.35,0,0,1,8.68-2.1,5,5,0,0,1-.89,9.21,1,1,0,0,1-1.25-.69,1,1,0,0,1,.7-1.26,2.95,2.95,0,0,0,.52-5.46,4.57,4.57,0,0,0-2.29-.4,4.48,4.48,0,0,0-3.74,1.75,6.35,6.35,0,0,0-.63,2.78c-.15,2.5-.12,5.31,1.38,7.27s4.51,3,8.77,2.79a11.37,11.37,0,0,0,2.6-.34c2.67-.77,4.8-3.58,5.18-6.83.32-2.75-.43-5.87-2.24-9.26a8.73,8.73,0,0,0-1.93-2.64,9.49,9.49,0,0,0-3.28-1.57,24.08,24.08,0,0,0-9.82-1.45,11.29,11.29,0,0,0-8.18,4.28c-2,2.85-2.2,6.56-2.2,10.77a15.45,15.45,0,0,0,.66,5.61c.92,2.43,3.13,4.27,5.16,5.76a22.16,22.16,0,0,0,8.47,4.2,17.36,17.36,0,0,0,3.66.26,20.48,20.48,0,0,0,14.57-6.21c3.74-4,5.18-10,3.58-14.82a27.5,27.5,0,0,0-4.34-7.4,25.14,25.14,0,0,0-4.92-5.5c-2.4-1.78-5.45-2.63-8.37-3.35a40,40,0,0,0-9.19-1.43,15.47,15.47,0,0,0-8.55,2.25,15.07,15.07,0,0,0-2.88,2.55c-5.31,5.92-7.2,15.18-4.82,23.6a20.33,20.33,0,0,0,1.79,4.44A21.39,21.39,0,0,0,408,297a32.2,32.2,0,0,0,3.87,2.77,28.9,28.9,0,0,0,24.41,2.45c8.64-3.08,15.13-10.64,16.16-18.81a22.57,22.57,0,0,0,0-5.45,26,26,0,0,0-7-14.83,52.78,52.78,0,0,0-7.57-6.18,20.88,20.88,0,0,0-13.06-5.24L419,251.1a1,1,0,0,1,.23-2l5.84.66a22.74,22.74,0,0,1,14,5.6,55.43,55.43,0,0,1,7.85,6.43,28.09,28.09,0,0,1,7.5,16,24.58,24.58,0,0,1,0,5.94c-1.12,8.92-8.15,17.14-17.49,20.47A30.31,30.31,0,0,1,426.75,305.92Z"/></g></g></svg>