<svg xmlns="http://www.w3.org/2000/svg" viewBox="0 0 647.9 783.73"><defs><style>.cls-1,.cls-10{fill:#60858a;}.cls-1,.cls-5{opacity:0.2;}.cls-2{opacity:0.3;}.cls-3{fill:#f8f8f8;}.cls-4{fill:#fff;}.cls-6{fill:#b55428;}.cls-7{fill:#f7d1cd;}.cls-8{fill:#241833;}.cls-9{fill:#53777a;}.cls-11{fill:#c3dbdd;}.cls-12{fill:#6b3b15;}.cls-13{fill:#f0c6ad;}.cls-14{fill:#1b172c;}.cls-15{fill:#5a2e11;}.cls-16{fill:#fffadd;}.cls-17{fill:#f9be7b;}.cls-18{fill:#eb703d;}</style></defs><title>Asset 10</title><g id="Layer_2" data-name="Layer 2"><g id="Layer_1-2" data-name="Layer 1"><path class="cls-1" d="M647,378.69s6.54,158.56-120.35,179.06C418.3,575.26,344.32,434.18,273.52,469.84s-136.63,59.31-194.85-57.4c-68.21-136.75-80-265.61,34.73-342s183.5-3.27,276.2-58S662,84,647,378.69Z"/><path class="cls-1" d="M73.43,269.78s66-142.23,186.77-102.8c103.11,33.68,107.86,177.88,186.19,178.6s143.22,23,141.52,151.84c-2,151-50,269.51-185.32,284.67S239.93,701.9,133.74,708-73.12,521.8,73.43,269.78Z"/><g class="cls-2"><path class="cls-3" d="M9.93,496.78a24.81,24.81,0,0,0,24.74,24.74H196.26A24.82,24.82,0,0,0,221,496.78V486H9.93Z"/></g><path class="cls-4" d="M219.45,487.51v9.27A23.22,23.22,0,0,1,196.26,520H34.67a23.22,23.22,0,0,1-23.19-23.2v-9.27h208M221,486H9.93v10.82a24.81,24.81,0,0,0,24.74,24.74H196.26A24.82,24.82,0,0,0,221,496.78V486Z"/><g class="cls-5"><rect class="cls-3" x="9.93" y="142.68" width="211.07" height="378.84" rx="24.74"/></g><g class="cls-2"><path class="cls-3" d="M221,167.42a24.82,24.82,0,0,0-24.74-24.74H34.67A24.82,24.82,0,0,0,9.93,167.42v10.83H221Z"/></g><path class="cls-4" d="M196.26,144.23a23.21,23.21,0,0,1,23.19,23.19V496.78A23.22,23.22,0,0,1,196.26,520H34.67a23.22,23.22,0,0,1-23.19-23.2V167.42a23.21,23.21,0,0,1,23.19-23.19H196.26m0-1.55H34.67A24.82,24.82,0,0,0,9.93,167.42V496.78a24.81,24.81,0,0,0,24.74,24.74H196.26A24.82,24.82,0,0,0,221,496.78V167.42a24.82,24.82,0,0,0-24.74-24.74Z"/><path class="cls-4" d="M196.26,144.23a23.21,23.21,0,0,1,23.19,23.19v9.28h-208v-9.28a23.21,23.21,0,0,1,23.19-23.19H196.26m0-1.55H34.67A24.82,24.82,0,0,0,9.93,167.42v10.83H221V167.42a24.82,24.82,0,0,0-24.74-24.74Z"/><path class="cls-6" d="M69.46,215.36s0-19.41,12.14-35.19c3.64-34,2.42-57,24.26-63.09,21.84-15.77,42.47-9.71,53.39,0s8.49,32.76,4.85,47.32-1.21,19.41,3.64,30.33a42.67,42.67,0,0,1,3.64,20.63Z"/><path class="cls-7" d="M171.52,295.77c7.16,7.87,16.8,19.18,31.7,12.37,27.06-12.37-20-114.42-20-114.42s6.11-41.74-17.94-49.54c-3.7,1.9-22,6-5.74,29.28,2.6,19.17,4.47,30.64,7.37,36.58l2.9,5.93s-2-13-34.35-9.92S155.25,277.88,171.52,295.77Z"/><path class="cls-8" d="M125.32,272.76c14.26,3.95,26.84,34.73,29.41,51.37,7.49,48.57,13.65,162.57,13.65,162.57-12.55,0-49.35.84-64.41,0,.78-12.79-11.83-78.38-11.54-99.75C93.06,339.69,72.58,258.12,125.32,272.76Z"/><path class="cls-9" d="M160.86,283s16.07-15.08,19.93-24.36c-6.95-28.6-4.63-50.25-25.51-53.34-11.6,0-8.5,48.71-8.5,48.71L153,273.36l1.52,5.4,5.41,5.41Z"/><path class="cls-8" d="M84.41,272.76C70.15,276.71,59.18,307.82,55,324.13,42.07,374.62,36.22,486.7,36.22,486.7c12.54,0,54.37.84,69.54,0-.78-12.79,11.83-78.38,11.55-99.75C116.67,339.69,137.16,258.12,84.41,272.76Z"/><path class="cls-7" d="M110.54,145.7s-8.85,47.63-16.25,49.21c-16.6,3.54-16.38,1.29-38,55.24S30.33,371.7,86.47,375.4c16.45,1.08,114.18-21.49,58-64.51-39.13-30-1.18-85.55-4.12-101.21s-25.29,11.09-5.67-37.62Z"/><path class="cls-7" d="M111.29,136.39s28.84-9.14,38.17,1.72,6.06,47.11-13.74,50.21C104.83,193.15,95.32,149.58,111.29,136.39Z"/><path class="cls-10" d="M96.5,193.2s2,23.48,20.12,19.84c11.1-2.23,8.51-12.37,10-14.69,5.44-.14,23.14,5.1,29,6.83,2.56.77,3.73,9.2,3.86,19.22.17,12.72,2.43,31.76-1.11,36.57-8.5,11.6,12.51,91.18,3.1,105.15s-108.42,16.44-116,16.24-10-27.61-2.31-85.82,1.31-89.61,12.37-98.19S88.79,192.94,96.5,193.2Z"/><path class="cls-7" d="M43.38,213s-6.6,52.82-5,90.23c5,36.31,13.75,66.57,14.3,75.92s-2.2,31.91,4.4,32.46,20.08-2.47,23.93-6.87c.55-1.65-.22-3-.77-4.64,1.65,0,4.52-.79,2.32-4.64s-5.54-8.32-7.74-19.33-7.73-64.66-7.73-77.31,6.19-76.54,6.19-76.54Z"/><path class="cls-9" d="M76.42,258.65S49.78,263.51,37,261s-3.87-41.75,4.93-52.54c11.19-13.73,23.73-17.89,32.89-6.07S80.11,253.18,76.42,258.65Z"/><path class="cls-8" d="M140.28,169a9.16,9.16,0,0,1-3.8-1l.83-1.57c.69.37,2.91,1.26,4,.62.33-.7-1.08-5-3.1-9.13l1.6-.78c2.21,4.54,4.43,10.21,2.42,11.43A3.77,3.77,0,0,1,140.28,169Z"/><path class="cls-8" d="M78,240c0-.21,3.12-20.86-4.61-37.91l1.62-.73c8,17.54,4.78,38.7,4.74,38.91Z"/><path class="cls-8" d="M129,175.91c.14-.06,3.58-1.57,6.72-.34a6.82,6.82,0,0,1,3.79,3.81l1.13-3.45c-1.43-1.47-4.31-2.18-6.11-2.21-3.37-.07-6.08,2.53-6.19,2.64Z"/><rect class="cls-8" x="76.61" y="386.52" width="1.16" height="11.78" transform="translate(-148.34 62.14) rotate(-23.2)"/><path class="cls-11" d="M100.94,486.91l-1.1-.36c9.13-28.16,7-58.23,6.93-58.53l1.15-.09C108,428.23,110.15,458.52,100.94,486.91Z"/><ellipse class="cls-8" cx="129.45" cy="154.49" rx="1.91" ry="1.51" transform="translate(-28.04 280.28) rotate(-88.65)"/><ellipse class="cls-8" cx="147.54" cy="152.47" rx="1.91" ry="1.51" transform="translate(-8.36 296.39) rotate(-88.65)"/><path class="cls-8" d="M178.57,163l-.63-1.57c-1.42.57-15.89,7.61-16.21,7.78l.79,1.49C165.19,169.33,177.5,163.46,178.57,163Z"/><path class="cls-8" d="M167.3,167.14l-10.87-13.73-1.33,1.05L166,168.19Z"/><path class="cls-8" d="M176,163.41a45.21,45.21,0,0,0-9.15-13l-1.19,1.2a44.3,44.3,0,0,1,8.78,12.49Z"/><path class="cls-8" d="M171.32,165a45.12,45.12,0,0,0-9.15-13L161,153.13a44.3,44.3,0,0,1,8.78,12.49Z"/><rect class="cls-8" x="179.64" y="223.57" width="1.16" height="62.73" transform="translate(-45.34 39.08) rotate(-11)"/><path class="cls-6" d="M154.51,147.32s-14.6-6.11-15.47-13.91c-7.8,4.33-16.16,2.83-20.5,2.83,0,9.54-20.47,54.38-20.47,54.38l3.14-22.31-1.74-27.74,15.61-19.93L135,117.17l16.47,14.74Z"/><circle class="cls-7" cx="110.05" cy="153.12" r="6.57"/><path class="cls-8" d="M157.8,300.47c0-.13-1.56-13.29-2-24.71s2-15.7,2.1-15.86l1,.61-.5-.31.5.3s-2.39,4.07-1.94,15.21c.47,11.37,2,24.5,2,24.63Z"/><path class="cls-3" d="M313.75,88.2l-3.53-63.43a15,15,0,0,0-15.74-14.09l-87.83,4.89a15,15,0,0,0-14.08,15.75L196,92.07,175.38,111l39-2.29h0l85.3-4.74A15,15,0,0,0,313.75,88.2Z"/><path d="M249.91,39.94c-3-3.83-7.49-5.55-12.07-6.84-3.93-1.1-8.67-2.41-12.63-.69-7.55,3.29-4.54,15.05,3.79,13.85a7.46,7.46,0,0,0,4.63-2.62C236,41,237.4,38.4,241,37.06c6.6-2.49,14,0,20.36,2.2s13.25,7.71,7,14.53c-4.56,4.94-12.36,7.15-18.85,7.74-7,.63-13.41-.83-19.81-3.49-3.93-1.62-7.74-1.89-10.79,1.49-5.72,6.35-2,16.74,4.91,20.42,7.8,4.14,17.86-1.46,19.52-9.89,1.18-6-3.14-11.86-1.64-17.8,2.29-9,17.17-4.55,19.07,2.69,2.61,10-12.9,8.28-18.47,7.23C236,61,229.72,58.42,225,54c-2.57-2.45-5.56-5.93-5.24-9.64.37-4.22,5.14-4.5,8.58-4.39A122.67,122.67,0,0,1,252.7,43.5l.31-2.26c-10.64-1.22-22.37,0-30.28,7.95-6.19,6.24-8.68,15.78-3.79,23.56,5.38,8.53,15.22,9,23.08,3.61a68.14,68.14,0,0,0,12.3-11.7q2.56-3,4.9-6.11c1.89-2.55,3.42-6.19,5.61-8.4,1.87-1.89,4.48-2.14,6.28-.26a20.72,20.72,0,0,1,2.82,4.22,65.71,65.71,0,0,1,4.35,9.36,66.51,66.51,0,0,1,4.08,19.15c.11,1.83.51,3.89-1.71,4.19a9.07,9.07,0,0,1-3.54-.86,24.17,24.17,0,0,1-8.47-5.4c-4.19-4-7.11-9-9.48-14.27-2.64-5.83-4.68-11.92-7.51-17.67-1.54-3.12-4-8.33-8.31-7.54-3.9.7-5.92,6.64-7.22,9.75a107,107,0,0,0-5.18,17.63c-1.79,7.9-2,21.24,9.82,19.78,5.44-.67,10.31-4.52,14.25-8.09A52.38,52.38,0,0,0,266.25,65.4a1.17,1.17,0,0,0-1-1.74l-13.39-.81-6.69-.41c-2.11-.13-8,.48-5.8-3.53,1.64-3,7.08-5.39,10.12-6.69a56.74,56.74,0,0,1,11.42-3.37c3.91-.76,7.88-1.24,11.85-1.65,1.31-.13,3.15-.69,4.43-.31,4.33,1.27,1.31,6.54.43,9-3,8.28-5.63,16.75-9,24.89a27,27,0,0,1-5.51,9,10.44,10.44,0,0,1-5,3c-4.65.89-6.21-3.51-6.42-7.09-.22-3.88,1-7.75,2.23-11.39,1.5-4.51,3-9,4.56-13.5,3-8.76,6-17.51,8.87-26.28,1.56-4.7.45-8.15-5.06-8.39-3.64-.15-7.51,1.13-11,2.13a84.27,84.27,0,0,0-11.61,4.31,85.41,85.41,0,0,0-21.43,14.12c-1.1,1,.53,2.61,1.63,1.63a82.34,82.34,0,0,1,26.58-16.06,72.25,72.25,0,0,1,12.24-3.44,14.16,14.16,0,0,1,3.55-.39c2.14.15,2.57.19,3,2.34.63,3.27-1.49,7.1-2.55,10.24q-5.26,15.63-10.55,31.25c-2.1,6.27-5.41,15.91.29,21.4,4.86,4.67,11.91-1.08,14.76-5.24,5.23-7.63,7.5-17.68,10.58-26.27,1.55-4.32,8.41-16.8-.63-17.55-3.49-.3-7.37.59-10.83,1.06a76.61,76.61,0,0,0-14.28,3.12c-4.08,1.38-18.72,7.16-15.83,13.67,1.33,3,7.13,2.19,9.66,2.35L265.26,66l-1-1.74a51,51,0,0,1-9.12,12.6c-4,4-9.74,9.12-15.7,9.21-13,.22-5.33-22-3.4-28.22a59.76,59.76,0,0,1,3.29-8.58,32.54,32.54,0,0,1,1.94-3.58c1.7-2.6,4.47-2.31,6.22.14,3.28,4.61,5,10.48,7.15,15.68,3.5,8.62,7.55,17.37,15.2,23.1,3.32,2.49,14.51,8.64,14.92.69.5-9.65-2.82-20.22-7-28.79-2.48-5.09-8.85-16.06-14.67-7.92-6.61,9.26-12.66,19.18-22.24,25.82-5.82,4-13,5-18.18-.53A15.18,15.18,0,0,1,219.6,58.1c5-13.55,20.86-16,33.41-14.56,1.29.15,1.55-2,.3-2.26a144.5,144.5,0,0,0-20.87-3.38c-4.2-.36-9.81-1.06-13.24,2.08-7.51,6.86,5.85,17.81,11.36,20.66a42.68,42.68,0,0,0,14.65,4.3c4.54.52,10.64,1.07,14.64-1.66,3.56-2.42,4.23-7,2.39-10.75C260,48,254.65,45.62,249.9,45c-4.43-.55-8.68,1.13-10.18,5.59-2.1,6.28,2.23,12.21,1.37,18.46-1,7.39-9.93,12.51-16.61,8.66-5.53-3.19-9.59-14.25-2.21-17.91,3.58-1.78,7.08.76,10.49,2a38.83,38.83,0,0,0,8.39,1.92,40.36,40.36,0,0,0,18.58-2.14c7.66-2.82,19.14-11.68,10.38-20.06-4.2-4-11.28-5.8-16.74-7-5.74-1.24-12.28-1.25-17.11,2.57-2.76,2.17-4.43,7-8.4,7a5,5,0,0,1-4.7-6c.62-2.84,3.44-4,6-4.06,6.31-.24,15.14,2.64,19.1,7.64.92,1.16,2.53-.48,1.62-1.63Z"/><g class="cls-5"><rect class="cls-3" x="360.16" y="371.53" width="211.07" height="378.84" rx="24.74"/></g><g class="cls-2"><path class="cls-3" d="M571.23,396.27a24.82,24.82,0,0,0-24.74-24.74H384.9a24.82,24.82,0,0,0-24.74,24.74V407.1H571.23Z"/></g><path class="cls-4" d="M546.49,373.08a23.23,23.23,0,0,1,23.2,23.19V725.63a23.23,23.23,0,0,1-23.2,23.2H384.9a23.23,23.23,0,0,1-23.19-23.2V396.27a23.23,23.23,0,0,1,23.19-23.19H546.49m0-1.55H384.9a24.82,24.82,0,0,0-24.74,24.74V725.63a24.82,24.82,0,0,0,24.74,24.74H546.49a24.81,24.81,0,0,0,24.74-24.74V396.27a24.82,24.82,0,0,0-24.74-24.74Z"/><path class="cls-4" d="M546.49,373.08a23.23,23.23,0,0,1,23.2,23.19v9.28h-208v-9.28a23.23,23.23,0,0,1,23.19-23.19H546.49m0-1.55H384.9a24.82,24.82,0,0,0-24.74,24.74V407.1H571.23V396.27a24.82,24.82,0,0,0-24.74-24.74Z"/><path class="cls-8" d="M445.58,517.83c-13.18,3.66-24.81,32.11-27.18,47.49-6.93,44.89-12.62,150.26-12.62,150.26,11.6,0,45.61.78,59.53,0-.72-11.82,10.93-72.45,10.67-92.19C475.39,579.7,494.33,504.31,445.58,517.83Z"/><path class="cls-8" d="M495.76,517.83c13.18,3.66,23.32,32.42,27.18,47.49,11.95,46.66,17.37,150.26,17.37,150.26-11.6,0-50.26.78-64.28,0,.72-11.82-10.94-72.45-10.67-92.19C465.94,579.7,447,504.31,495.76,517.83Z"/><path class="cls-12" d="M421.5,351.65s3.19,10,1.69,16.46-8,10.07-3.29,26,1.51,16.67,1.25,21.34c0,0,66-.57,96.93-20.71l-13.72-18.83c-7.21-9.9-11.3-27-11.3-27l-26-7Z"/><path class="cls-13" d="M468.29,376.71s2.79,29.87,4.12,31c2.25,1.91,15.55.14,21.66,5.07s-24.41,19.78-40,20.43c-10.38.43-23.07-19.83-15.77-20.61s11.88-3.11,11.16-8.45S448.2,394,448.2,394,467.29,377.6,468.29,376.71Z"/><path class="cls-12" d="M435.76,338c-.77-.15,1.69-4.75,2.41-5.07,11.25-4.91,35.58-12.38,50.31,6.74,10.83,14.06,4.42,43.24-14.21,53.79-17.75,10.05-20.92-51.88-20.92-51.88Z"/><path class="cls-13" d="M456.71,402.31h0C445,404.16,433.8,396.39,432,386.83l-4.19-22.58A22.6,22.6,0,0,1,445,338h0c12.18-2.75,26.41,4.41,29.16,16.58l3.17,18.2C479.79,386.8,471.76,399.59,456.71,402.31Z"/><path class="cls-12" d="M464.21,352.6c-4.76,9,5.64,19.92,5.64,19.92L485,349.79S467,347.29,464.21,352.6Z"/><path class="cls-14" d="M443.72,385.31a.38.38,0,0,1-.27-.1.39.39,0,0,1-.11-.32l.42-4.15.77.08-.37,3.66,2.17-.32.11.77-2.67.38Z"/><path class="cls-15" d="M454.47,364.26s-5.15.32-5,2c0,0,.17,1.11,4.66.76s5.6-.76,5.85-1.85S456.86,364,454.47,364.26Z"/><path class="cls-15" d="M434.07,367s4.16-.89,4.73.61c0,0,.35,1-3.3,1.73s-4.91.49-5.38-.31S432.07,367.32,434.07,367Z"/><path class="cls-14" d="M449.35,391.78a8.92,8.92,0,0,0,4.75-5.94l-.17.14a6.61,6.61,0,0,1-6.06,3.35Z"/><path class="cls-12" d="M438.17,332.91s-24.32,11.72-18.11,20.69c4.61,6.64,30.48,8.39,54.11.93,0,0,10.1-10.08-4.49-17.95C469.68,336.58,461.29,327,438.17,332.91Z"/><path class="cls-13" d="M331.39,438c-15.3-6.11-30-9.11-30.34-8.28-.72,1.87,4.75,4.63,4.75,4.63s-11.32-3.26-10.27-1.2,8,4.86,8,4.86-10.12-3.31-9.53-1.31,6.75,4.92,6.75,4.92-8-.46-6.86,1.41,6.35,2.53,9.72,4.33c1.23.66,9.36,6.09,20.21,12.41C342.69,470.69,350.71,445.67,331.39,438Z"/><path class="cls-8" d="M320.67,444.7a4.52,4.52,0,0,1-3.88-1.05c-2.05-1.88-1.87-5.49-1.87-5.65l1.61.09s-.14,3,1.35,4.39a3,3,0,0,0,2.57.63Z"/><path class="cls-16" d="M317.5,454.16s14.93-15.28,16.39-15.88,7.6,4.8,8,8.12-13.07,18.29-17.38,18.24S314.79,456.92,317.5,454.16Z"/><path class="cls-17" d="M320.25,464.55s14.31-21.43,21.48-20.72,36.17,31.48,36.17,31.48c2.45-1.33,30.15-64.65,55.47-64.62,5.84,0,13.56,39.45,9.6,44.92s-33.35,79.58-57.91,76.86C376.28,531.5,317.12,468.58,320.25,464.55Z"/><path class="cls-17" d="M444.25,411.37s-4.42,14.56,6.36,14.44c12.67-.13,27-16.11,29.39-16.48,21.38-3.31,29.24,3.34,37.07,11.19s13.42,144,6.23,145.85-100,4.88-104.38.77c-6-5.6-8.77-142.88-6.52-143.4S428,409.12,444.25,411.37Z"/><path class="cls-8" d="M416.62,505l-1.29-.69c2.95-5.54,4.05-15.36,4.06-15.46l1.46.16C420.81,489.44,419.7,499.22,416.62,505Z"/><path class="cls-18" d="M383.36,443.44s61.85-1.55,61.85,0,19.33,85.82,16.24,85.82-59.54,4.63-61.08.77S380.27,443.44,383.36,443.44Z"/><path class="cls-17" d="M462.13,514.13s2.21-20.39,10.33-21.6,27.24,2.19,30-1.73-26.73-79.23-18.55-81.16c16.46-3.89,27.28,2.93,37.13,15.48,12.46,15.88,24.92,84.59,15.88,97.5C529,533.94,463.13,523.19,462.13,514.13Z"/><path class="cls-13" d="M461.39,495.86s-6.35-7.68-6.33-7.29-.94,7.71-.94,7.71-17.18-7.71-17.47-3.45,2.39,12.42,9.13,15.5,14.24,8.05,16.65,5.6S469,502,461.39,495.86Z"/><path class="cls-16" d="M482.93,408.93s-6.95-3.92-12.63-.1c-10,6.74-19.05,16.76-19.05,16.76S446,409.5,443.52,409.4s-12.35-.61-11.76,3.18,2.62,22.87,8.16,22.12,11.62-6.29,11.62-6.29,2.81,7.31,8.79,8C470.08,437.43,485.36,412.73,482.93,408.93Z"/><path class="cls-16" d="M472.37,495.47s-1,22.65-4.52,22.28a60.63,60.63,0,0,1-8-1.62s2.69-22.28,4.15-22.43C466.79,493.42,472.37,495.47,472.37,495.47Z"/><path class="cls-8" d="M449.39,508.5,448,508c.41-1.28,3.37-8.11,3.5-8.4l1.36.59C451.78,502.67,449.7,507.53,449.39,508.5Z"/><path class="cls-8" d="M450.57,503.25l-12.74-8.63.84-1.23L451.41,502Z"/><path class="cls-8" d="M449.55,506.18a39.47,39.47,0,0,1-12-7.16l1-1.12A38.6,38.6,0,0,0,450,504.77Z"/><path class="cls-10" d="M437.76,383.87a8,8,0,1,1,7.14-8.78A8,8,0,0,1,437.76,383.87Zm-1.51-14.69a6.77,6.77,0,1,0,7.42,6A6.77,6.77,0,0,0,436.25,369.18Z"/><path class="cls-10" d="M457.11,381.88a8,8,0,1,1,7.14-8.78A8,8,0,0,1,457.11,381.88Zm-1.52-14.69a6.77,6.77,0,1,0,7.43,6A6.77,6.77,0,0,0,455.59,367.19Z"/><path class="cls-10" d="M449.34,376.76a18.57,18.57,0,0,0-4.94.05l-.2-1.21a19.08,19.08,0,0,1,5.33-.06Z"/><rect class="cls-10" x="463.16" y="370.8" width="13.62" height="1.24" transform="translate(-76.95 127.08) rotate(-14.25)"/><path class="cls-13" d="M487.93,368.44a9.27,9.27,0,1,1-11.08-7A9.26,9.26,0,0,1,487.93,368.44Z"/><path class="cls-14" d="M476,374a7.17,7.17,0,0,1,1-5.35,5.62,5.62,0,0,1,4.43-2.06l0,.77a4.91,4.91,0,0,0-3.85,1.75c-1.43,1.89-.82,4.69-.81,4.72Z"/><ellipse class="cls-8" cx="436.39" cy="376.39" rx="1.91" ry="1.51" transform="translate(49.86 803.82) rotate(-88.65)"/><ellipse class="cls-8" cx="456.02" cy="374.37" rx="1.91" ry="1.51" transform="translate(71.05 821.47) rotate(-88.65)"/><path class="cls-16" d="M482.52,715.63c-1.45-19.7-2.23-25-10.82-62.54-8.48-37.08-8-55.41-8-55.59l1.16,0c0,.18-.48,18.4,8,55.3,8.6,37.62,9.38,42.94,10.83,62.71Z"/><path class="cls-8" d="M517.16,528.08c-1.09,0-27-.67-39.52-5.27l.4-1.08c12.3,4.52,38.88,5.18,39.15,5.19Z"/><path class="cls-8" d="M489.9,462.9c-1.88-9.8-3.65-19.06-3.15-22.85l-1.46-.19c-.53,4,1.26,13.39,3.16,23.32,2.23,11.63,5.28,27.56,2.66,28.91a11,11,0,0,1-3.38.39v1.46c.78,0,1.49-.06,2.11-.12a6.1,6.1,0,0,0,2-.43C495.13,491.66,493.3,480.72,489.9,462.9Z"/><g class="cls-2"><path class="cls-3" d="M360.16,725.63a24.82,24.82,0,0,0,24.74,24.74H546.49a24.81,24.81,0,0,0,24.74-24.74V714.81H360.16Z"/></g><path class="cls-4" d="M569.69,716.36v9.27a23.23,23.23,0,0,1-23.2,23.2H384.9a23.23,23.23,0,0,1-23.19-23.2v-9.27h208m1.54-1.55H360.16v10.82a24.82,24.82,0,0,0,24.74,24.74H546.49a24.81,24.81,0,0,0,24.74-24.74V714.81Z"/><path class="cls-3" d="M577,215.1l-83-5.93c-6.52,0-14.81,10.28-14.81,16.8l-4.94,58.28-2,31.62L487.5,304,577,295.12a11.88,11.88,0,0,0,11.85-11.85V227A11.89,11.89,0,0,0,577,215.1Z"/><path d="M531,286.17a35.35,35.35,0,0,1-18.2-5,39.6,39.6,0,0,1-4.7-3.36,26.73,26.73,0,0,1-6.44-7.35,25.25,25.25,0,0,1-2.26-5.59c-2.94-10.37-.57-21.82,6-29.16a19,19,0,0,1,3.74-3.3,19.7,19.7,0,0,1,10.92-3h.14a47.57,47.57,0,0,1,11.06,1.69c3.57.88,7.31,1.93,10.4,4.23a30.11,30.11,0,0,1,6.11,6.77c1.95,2.66,4.16,5.67,5.3,9.11,2.11,6.39.31,13.94-4.59,19.26a25.81,25.81,0,0,1-18.31,7.84,22.09,22.09,0,0,1-4.68-.34c-4.22-.82-7.9-3.21-10.63-5.21s-5.42-4.29-6.69-7.62a20,20,0,0,1-.91-7.25c0-4,0-9.54,2.94-13.66a15.14,15.14,0,0,1,11-5.87,31.36,31.36,0,0,1,12.14,1.76,13,13,0,0,1,4.55,2.24,12.21,12.21,0,0,1,2.76,3.7c2.29,4.31,3.24,8.32,2.81,11.94-.54,4.71-3.59,8.63-7.59,9.78a15,15,0,0,1-3.51.48c-5.67.23-9.7-1.15-12-4.1s-2.25-6.59-2-9.87a8.93,8.93,0,0,1,1-4.24,7.34,7.34,0,0,1,6.17-3.11,7.61,7.61,0,0,1,3.76.71,5.69,5.69,0,0,1-1,10.54,1.16,1.16,0,0,1-.64-2.23,3.37,3.37,0,0,0,.61-6.24,5.16,5.16,0,0,0-2.62-.46,5.07,5.07,0,0,0-4.28,2,7.09,7.09,0,0,0-.72,3.18c-.18,2.85-.14,6.07,1.58,8.31s5.15,3.39,10,3.19a12.78,12.78,0,0,0,3-.39c3.06-.88,5.5-4.09,5.93-7.81.37-3.15-.49-6.71-2.56-10.59a10,10,0,0,0-2.2-3,11.09,11.09,0,0,0-3.76-1.8c-4.54-1.45-8-2-11.22-1.66a13,13,0,0,0-9.37,4.9c-2.32,3.26-2.51,7.51-2.51,12.32a17.87,17.87,0,0,0,.76,6.42c1.05,2.77,3.57,4.88,5.89,6.58,2.54,1.85,5.93,4.07,9.7,4.8a20.08,20.08,0,0,0,4.18.3,23.42,23.42,0,0,0,16.66-7.1c4.28-4.63,5.92-11.44,4.1-17-1-3.09-3-5.83-5-8.46a28.68,28.68,0,0,0-5.62-6.29c-2.75-2-6.24-3-9.58-3.84a46,46,0,0,0-10.51-1.62,17.6,17.6,0,0,0-9.77,2.57,16.72,16.72,0,0,0-3.29,2.92c-6.08,6.76-8.24,17.35-5.52,27a22.78,22.78,0,0,0,2,5.08,24.68,24.68,0,0,0,5.9,6.71,36,36,0,0,0,4.42,3.15A33,33,0,0,0,542,282c9.88-3.52,17.31-12.17,18.48-21.52a26,26,0,0,0,0-6.23,29.76,29.76,0,0,0-8-16.95,60.4,60.4,0,0,0-8.65-7.07,23.91,23.91,0,0,0-15-6l-6.68-.75a1.16,1.16,0,0,1,.26-2.31l6.68.76a26,26,0,0,1,16,6.4,63.06,63.06,0,0,1,9,7.36A32,32,0,0,1,562.73,254a28,28,0,0,1,0,6.79c-1.28,10.2-9.32,19.61-20,23.42A35,35,0,0,1,531,286.17Z"/></g></g></svg>